<svg xmlns="http://www.w3.org/2000/svg" width="48" height="48" viewBox="0 0 48 48"><g class="nc-icon-wrapper" stroke-linecap="square" stroke-linejoin="miter" stroke-width="3" transform="translate(0.5 0.5)" fill="none" stroke="#716153" stroke-miterlimit="10"><path d="M24,14L24,14 c-3.314,0-6-2.686-6-6v0c0-3.314,2.686-6,6-6h0c3.314,0,6,2.686,6,6v0C30,11.314,27.314,14,24,14z" stroke="#716153"></path> <path d="M29,46H19l-1-12l-4-1V23 c0-2.209,1.791-4,4-4h12c2.209,0,4,1.791,4,4v10l-4,1L29,46z"></path></g></svg>