<svg width="49" height="48" viewBox="0 0 49 48" fill="none" xmlns="http://www.w3.org/2000/svg">
<path d="M44 26.5V34.5C44 37.6826 42.7357 40.7348 40.4853 42.9853C38.2348 45.2357 35.1826 46.5 32 46.5V38.5C32 35.3174 33.2643 32.2652 35.5147 30.0147C37.7652 27.7643 40.8174 26.5 44 26.5Z" stroke="#716153" stroke-width="3" stroke-miterlimit="10" stroke-linecap="square"/>
<path d="M22 30.5C24.6522 30.5 27.1957 31.5536 29.0711 33.4289C30.9464 35.3043 32 37.8478 32 40.5V46.5C29.3478 46.5 26.8043 45.4464 24.9289 43.5711C23.0536 41.6957 22 39.1522 22 36.5V30.5Z" stroke="#716153" stroke-width="3" stroke-miterlimit="10" stroke-linecap="square"/>
<path d="M20 46.5H13.818C13.0548 46.5 12.3202 46.209 11.764 45.6864C11.2077 45.1638 10.8716 44.4488 10.824 43.687L9 14.5H29L28.25 26.5" stroke="#716153" stroke-width="3" stroke-miterlimit="10" stroke-linecap="square"/>
<path d="M17 14.5L15 2.5H7" stroke="#716153" stroke-width="3" stroke-miterlimit="10"/>
</svg>
