<svg width="49" height="48" viewBox="0 0 49 48" fill="none" xmlns="http://www.w3.org/2000/svg">
<g clip-path="url(#clip0_423_2)">
<path d="M38.1667 0.5V2.5C38.1667 4.35652 37.4292 6.13699 36.1164 7.44975C34.8037 8.7625 33.0232 9.5 31.1667 9.5V7.5C31.1667 5.64348 31.9042 3.86301 33.2169 2.55025C34.5297 1.2375 36.3102 0.5 38.1667 0.5Z" fill="#716153"/>
<path d="M28.1207 13.5C28.1207 9.5 25.2877 4.75 21.1207 3.5" stroke="#716153" stroke-width="3" stroke-miterlimit="10"/>
<path d="M10.8417 17.5H7.16669C6.10582 17.5 5.08841 17.9214 4.33826 18.6716C3.58811 19.4217 3.16669 20.4391 3.16669 21.5" stroke="#716153" stroke-width="3" stroke-miterlimit="10"/>
<path d="M12.4117 37.5C12.6577 37.947 12.9017 38.394 13.1777 38.836C18.9897 48.126 24.8507 44.991 28.1667 44.991C31.4827 44.991 37.3437 48.126 43.1557 38.836C49.2127 29.152 47.7227 18.194 43.2317 14.585C38.3377 10.648 32.8317 13.5 28.1667 13.5C23.5017 13.5 17.9957 10.656 13.1017 14.59C10.6787 16.533 9.14369 20.628 9.18169 25.5" stroke="#716153" stroke-width="3" stroke-miterlimit="10"/>
<path d="M9.16669 25.5V28.5" stroke="#716153" stroke-width="3" stroke-miterlimit="10" stroke-linecap="square"/>
<path d="M15.1667 25.5V30.5" stroke="#716153" stroke-width="3" stroke-miterlimit="10" stroke-linecap="square"/>
<path d="M21.1667 25.5V28.5" stroke="#716153" stroke-width="3" stroke-miterlimit="10" stroke-linecap="square"/>
<path d="M27.1667 25.5V30.5" stroke="#716153" stroke-width="3" stroke-miterlimit="10" stroke-linecap="square"/>
<path d="M3.16669 21.5C3.16669 22.5609 3.58811 23.5783 4.33826 24.3284C5.08841 25.0786 6.10582 25.5 7.16669 25.5H33.1667V37.5H7.16669C6.10582 37.5 5.08841 37.0786 4.33826 36.3284C3.58811 35.5783 3.16669 34.5609 3.16669 33.5V21.5Z" stroke="#716153" stroke-width="3" stroke-miterlimit="10"/>
</g>
<defs>
<clipPath id="clip0_423_2">
<rect width="48" height="48" fill="white" transform="translate(0.666687)"/>
</clipPath>
</defs>
</svg>
