<svg width="49" height="48" viewBox="0 0 49 48" fill="none" xmlns="http://www.w3.org/2000/svg">
<path d="M39 46.5V33.89C41.2347 31.8873 42.9329 29.3574 43.9402 26.5307C44.9474 23.704 45.2316 20.6703 44.767 17.7057C44.3024 14.7411 43.1036 11.9398 41.2799 9.5568C39.4562 7.1738 37.0654 5.2848 34.3251 4.06174C31.5849 2.83869 28.5823 2.32043 25.5906 2.55416C22.599 2.78788 19.7133 3.76616 17.1962 5.39994C14.6792 7.03372 12.6108 9.27111 11.1793 11.9084C9.74773 14.5457 8.99858 17.4992 9 20.5V22.5L5 30.5L9 32.5V38.5C9 39.5609 9.42143 40.5783 10.1716 41.3284C10.9217 42.0786 11.9391 42.5 13 42.5H21V46.5" stroke="#716153" stroke-width="3" stroke-miterlimit="10" stroke-linecap="square"/>
<path d="M27 27.5C30.866 27.5 34 24.366 34 20.5C34 16.634 30.866 13.5 27 13.5C23.134 13.5 20 16.634 20 20.5C20 24.366 23.134 27.5 27 27.5Z" stroke="#716153" stroke-width="3" stroke-miterlimit="10" stroke-linecap="square"/>
<path d="M27 13.5V10.5" stroke="#716153" stroke-width="3" stroke-miterlimit="10" stroke-linecap="square"/>
<path d="M31.95 15.55L34.0709 13.429" stroke="#716153" stroke-width="3" stroke-miterlimit="10" stroke-linecap="square"/>
<path d="M34 20.5H37" stroke="#716153" stroke-width="3" stroke-miterlimit="10" stroke-linecap="square"/>
<path d="M31.95 25.45L34.0709 27.571" stroke="#716153" stroke-width="3" stroke-miterlimit="10" stroke-linecap="square"/>
<path d="M27 27.5V30.5" stroke="#716153" stroke-width="3" stroke-miterlimit="10" stroke-linecap="square"/>
<path d="M22.05 25.45L19.929 27.571" stroke="#716153" stroke-width="3" stroke-miterlimit="10" stroke-linecap="square"/>
<path d="M20 20.5H17" stroke="#716153" stroke-width="3" stroke-miterlimit="10" stroke-linecap="square"/>
<path d="M22.05 15.55L19.929 13.429" stroke="#716153" stroke-width="3" stroke-miterlimit="10" stroke-linecap="square"/>
<path d="M27 22.5C28.1046 22.5 29 21.6046 29 20.5C29 19.3954 28.1046 18.5 27 18.5C25.8954 18.5 25 19.3954 25 20.5C25 21.6046 25.8954 22.5 27 22.5Z" stroke="#716153" stroke-width="3" stroke-miterlimit="10" stroke-linecap="square"/>
</svg>
