<?xml version="1.0" encoding="UTF-8" standalone="no"?><!DOCTYPE svg PUBLIC "-//W3C//DTD SVG 1.1//EN" "http://www.w3.org/Graphics/SVG/1.1/DTD/svg11.dtd"><svg width="100%" height="100%" viewBox="0 0 592 459" version="1.1" xmlns="http://www.w3.org/2000/svg" xmlns:xlink="http://www.w3.org/1999/xlink" xml:space="preserve" xmlns:serif="http://www.serif.com/" style="fill-rule:evenodd;clip-rule:evenodd;stroke-linejoin:round;stroke-miterlimit:2;"><g><path d="M293.025,45.066l-83.36,-0c-5.956,-0 -8.313,0.094 -11.457,-4.901l-5.103,0c-0.593,11.44 -1.887,25.225 -3.188,38.477l6.607,-0c2.732,-7.874 4.641,-13.367 7.228,-17.525c3.651,-6.062 7.012,-7.433 18.607,-7.433l17.992,-0l-0,101.528c-0,16.759 -1.721,18.708 -20.963,20l-0,6.214l62.693,0l0,-6.214c-19.733,-1.292 -21.49,-3.414 -21.49,-20l-0,-101.528l19.647,-0c11.71,-0 13.735,1.501 17.175,6.943c1.003,1.663 1.887,3.395 2.646,5.182l-0,-22.021c-1.721,0.96 -3.752,1.278 -7.034,1.278Z" style="fill:#fff;fill-rule:nonzero;"/><path d="M349.328,237.391c12.108,-2.887 28.322,-12.183 28.322,-31.49c-0,-10.624 -5.06,-18.419 -12.47,-23.457c-7.026,-4.727 -16.943,-7.34 -32.738,-7.34l-35.189,-0l0,136.36l31.083,0c15.122,0 26.479,-2.244 37.372,-8.293c12.289,-6.712 20.341,-18.195 20.341,-32.421c0.029,-20.086 -16.214,-29.887 -36.721,-33.359Zm-34.885,-42.208c-0,-6.301 0.593,-8.719 2.234,-10.054c1.951,-1.393 5.732,-2.165 11.464,-2.165c18.621,-0 28.192,10.537 28.192,25.86c-0,16.904 -9.08,26.019 -31.625,26.019l-10.265,-0l-0,-39.66Zm18.107,108.472c-14.269,-0 -18.107,-3.897 -18.107,-18.997l-0,-42.15l9.592,-0c25.257,-0 39.512,9.311 39.512,30.371c0.007,21.696 -15.39,30.733 -30.989,30.776l-0.008,-0Z" style="fill:#fff;fill-rule:nonzero;"/><rect x="295.555" y="0" width="4.995" height="353.023" style="fill:#fff;fill-rule:nonzero;"/><path d="M299.776,147.237c13.704,-2.805 26.803,-8.012 38.687,-15.38c11.817,-7.267 22.215,-16.617 30.686,-27.593c4.788,-6.244 8.827,-13.027 12.035,-20.209c0.427,-0.974 -1.004,-1.819 -1.445,-0.845c-5.641,12.516 -13.72,23.785 -23.768,33.15c-10.103,9.469 -21.81,17.071 -34.574,22.454c-7.11,3.004 -14.503,5.289 -22.069,6.821c-1.048,0.209 -0.607,1.811 0.441,1.602l0.007,0Z" style="fill:#fff;fill-rule:nonzero;"/><path d="M380.577,83.103c-8.059,-4.223 -12.484,-13.129 -15.086,-21.458c-2.841,-9.183 -3.527,-18.897 -2.002,-28.387c0.854,-5.319 2.407,-10.503 4.619,-15.416l-1.308,0.173c5.944,7.201 10.323,15.558 12.859,24.54c0.029,0.105 0.079,0.203 0.146,0.289c0.067,0.086 0.15,0.158 0.245,0.213c0.095,0.053 0.2,0.088 0.308,0.102c0.109,0.013 0.219,0.006 0.324,-0.024c0.106,-0.028 0.204,-0.078 0.291,-0.145c0.086,-0.067 0.158,-0.15 0.212,-0.245c0.054,-0.095 0.089,-0.199 0.102,-0.307c0.014,-0.109 0.006,-0.218 -0.023,-0.324c-2.629,-9.248 -7.153,-17.85 -13.286,-25.261c-0.09,-0.089 -0.2,-0.157 -0.32,-0.197c-0.121,-0.041 -0.249,-0.054 -0.375,-0.038c-0.126,0.016 -0.246,0.061 -0.353,0.13c-0.106,0.07 -0.195,0.162 -0.26,0.271c-4.123,9.143 -6.027,19.128 -5.559,29.144c0.448,9.592 2.956,19.422 7.951,27.701c2.624,4.374 6.13,8.293 10.706,10.689c0.947,0.498 1.785,-0.938 0.838,-1.443l-0.029,-0.007Z" style="fill:#fff;fill-rule:nonzero;"/><path d="M381.069,82.864c-3.807,-18.417 -2.195,-37.54 4.641,-55.062c1.942,-4.979 4.305,-9.784 7.063,-14.363l-1.526,-0.202c5.638,19.119 8.544,40.764 -1.597,58.96c-2.461,4.463 -5.702,8.45 -9.571,11.771c-0.817,0.722 0.361,1.862 1.178,1.17c7.106,-6.048 11.891,-14.436 14.458,-23.313c2.891,-9.902 2.891,-20.346 1.38,-30.487c-0.979,-6.271 -2.397,-12.467 -4.243,-18.541c-0.047,-0.155 -0.137,-0.293 -0.261,-0.397c-0.123,-0.105 -0.274,-0.171 -0.435,-0.192c-0.16,-0.02 -0.323,0.006 -0.469,0.076c-0.146,0.07 -0.269,0.18 -0.353,0.318c-9.844,16.519 -14.663,35.539 -13.872,54.745c0.238,5.366 0.92,10.703 2.039,15.958c0.217,1.046 1.822,0.606 1.604,-0.441l-0.036,0Z" style="fill:#fff;fill-rule:nonzero;"/><path d="M367.017,18.766c0.368,17.21 3.043,34.294 7.951,50.796c1.393,4.678 2.966,9.297 4.72,13.858c0.383,0.989 1.988,0.556 1.605,-0.44c-6.137,-15.992 -10.095,-32.735 -11.768,-49.779c-0.482,-4.812 -0.764,-9.624 -0.846,-14.435c0,-0.22 -0.087,-0.432 -0.243,-0.587c-0.156,-0.156 -0.368,-0.243 -0.588,-0.243c-0.221,-0 -0.432,0.087 -0.588,0.243c-0.156,0.155 -0.243,0.367 -0.243,0.587Z" style="fill:#fff;fill-rule:nonzero;"/><path d="M390.935,13.786c-2.322,18.024 -5.226,35.962 -8.71,53.813c-0.993,5.076 -2.029,10.146 -3.108,15.208c-0.224,1.039 1.381,1.486 1.605,0.44c3.855,-17.977 7.117,-36.066 9.787,-54.269c0.742,-5.057 1.441,-10.109 2.096,-15.156c0.138,-1.054 -1.532,-1.047 -1.67,-0l0,-0.036Z" style="fill:#fff;fill-rule:nonzero;"/><path d="M319.459,140.222c-2.609,-15.432 2.891,-31.757 13.676,-43.002c3.088,-3.213 6.611,-5.978 10.468,-8.214l-1.258,-0.722c-0.588,4.394 -1.176,8.789 -1.764,13.187c-0.485,4.284 -1.248,8.532 -2.284,12.717c-2.955,10.91 -10.129,20.202 -19.944,25.832c-0.18,0.117 -0.308,0.299 -0.357,0.508c-0.049,0.209 -0.016,0.429 0.092,0.615c0.109,0.185 0.285,0.322 0.492,0.382c0.206,0.059 0.428,0.037 0.619,-0.062c6.298,-3.625 11.613,-8.731 15.484,-14.876c1.929,-3.052 3.471,-6.332 4.59,-9.764c1.285,-4.306 2.185,-8.716 2.689,-13.18c0.698,-5.119 1.388,-10.239 2.067,-15.359c0.087,-0.649 -0.767,-0.996 -1.258,-0.722c-14.096,8.163 -23.456,23.291 -25.3,39.372c-0.519,4.566 -0.39,9.183 0.383,13.713c0.181,1.047 1.786,0.607 1.605,-0.44l0,0.015Z" style="fill:#fff;fill-rule:nonzero;"/><path d="M342.352,104.351c4.134,-3.453 8.956,-5.987 14.147,-7.434l-1.049,-0.802c-1.366,13.115 -5.819,27.377 -18.006,34.313c-0.18,0.117 -0.308,0.3 -0.357,0.509c-0.05,0.208 -0.016,0.428 0.092,0.614c0.109,0.185 0.285,0.322 0.491,0.382c0.207,0.059 0.429,0.037 0.62,-0.062c12.722,-7.217 17.399,-22.042 18.794,-35.748c-0.001,-0.128 -0.031,-0.254 -0.089,-0.368c-0.057,-0.114 -0.14,-0.214 -0.242,-0.291c-0.102,-0.077 -0.22,-0.13 -0.345,-0.155c-0.126,-0.025 -0.255,-0.02 -0.379,0.013c-5.452,1.547 -10.511,4.236 -14.841,7.888c-0.816,0.722 0.362,1.863 1.179,1.177l-0.015,-0.036Z" style="fill:#fff;fill-rule:nonzero;"/><path d="M319.504,140.215l17.934,-38.737l5.111,-11.043c0.448,-0.967 -0.991,-1.811 -1.446,-0.837l-17.934,38.737l-5.111,11.042c-0.448,0.96 0.991,1.805 1.446,0.838Z" style="fill:#fff;fill-rule:nonzero;"/><path d="M354.923,96.715c-4.236,5.095 -8.487,10.198 -12.115,15.741c-2.892,4.395 -5.285,9.556 -9.347,12.992c-0.817,0.721 0.362,1.869 1.171,1.176c3.983,-3.392 6.419,-8.387 9.195,-12.717c3.614,-5.673 7.951,-10.87 12.288,-16.045c0.68,-0.815 -0.491,-1.999 -1.171,-1.177l-0.022,0.03Z" style="fill:#fff;fill-rule:nonzero;"/><path d="M357.959,117.645c14.199,0.024 28.242,-2.957 41.203,-8.747c3.698,-1.653 7.29,-3.53 10.756,-5.623c0.095,-0.055 0.178,-0.128 0.245,-0.215c0.067,-0.087 0.115,-0.186 0.144,-0.292c0.028,-0.106 0.035,-0.216 0.02,-0.325c-0.014,-0.109 -0.05,-0.213 -0.105,-0.308c-0.055,-0.095 -0.129,-0.178 -0.216,-0.245c-0.087,-0.066 -0.186,-0.115 -0.292,-0.143c-0.106,-0.028 -0.217,-0.035 -0.326,-0.02c-0.108,0.014 -0.213,0.05 -0.308,0.105c-12.009,7.236 -25.425,11.833 -39.353,13.482c-3.904,0.452 -7.831,0.674 -11.761,0.664c-0.22,-0 -0.431,0.087 -0.588,0.243c-0.155,0.156 -0.243,0.367 -0.243,0.587c0,0.22 0.088,0.431 0.243,0.587c0.157,0.156 0.368,0.243 0.588,0.243l-0.007,0.007Z" style="fill:#fff;fill-rule:nonzero;"/><path d="M410.15,102.828c1.677,-8.416 3.419,-17.091 8.175,-24.403c2.079,-3.275 4.829,-6.072 8.067,-8.206c3.283,-2.1 6.954,-3.435 10.6,-4.734c4.112,-1.444 8.266,-2.931 11.975,-5.284l-1.221,-0.938l-4.496,13.41c-1.388,4.15 -2.754,8.358 -5.113,12.082c-3.858,6.106 -9.95,10.386 -16.466,13.302c-3.834,1.677 -7.816,2.987 -11.897,3.912c-1.041,0.245 -0.6,1.848 0.441,1.602c7.343,-1.725 14.652,-4.446 20.768,-8.942c2.929,-2.124 5.505,-4.693 7.634,-7.615c2.537,-3.529 4.104,-7.6 5.491,-11.692c1.771,-5.197 3.492,-10.408 5.242,-15.619c0.037,-0.159 0.029,-0.325 -0.025,-0.48c-0.054,-0.154 -0.154,-0.289 -0.283,-0.388c-0.13,-0.1 -0.288,-0.159 -0.45,-0.172c-0.163,-0.012 -0.325,0.023 -0.471,0.102c-6.817,4.33 -15.092,5.485 -21.996,9.664c-6.904,4.179 -11.233,11.296 -13.821,18.766c-1.598,4.96 -2.854,10.024 -3.759,15.156c-0.209,1.047 1.395,1.494 1.605,0.448l0,0.029Z" style="fill:#fff;fill-rule:nonzero;"/><path d="M410.034,102.994c5.729,3.473 12.549,4.685 19.129,3.399c7.004,-1.371 12.562,-5.868 17.845,-10.393c2.93,-2.512 5.892,-5.052 7.725,-8.538c0.063,-0.111 0.1,-0.234 0.109,-0.36c0.004,-0.126 -0.017,-0.253 -0.063,-0.37c-0.05,-0.117 -0.121,-0.222 -0.217,-0.307c-0.091,-0.085 -0.204,-0.147 -0.325,-0.183c-4.766,-1.34 -9.687,-2.046 -14.637,-2.1c-0.221,-0 -0.433,0.087 -0.588,0.243c-0.158,0.155 -0.245,0.366 -0.245,0.587c-0,0.22 0.087,0.431 0.245,0.586c0.155,0.156 0.367,0.244 0.588,0.244c4.8,0.057 9.575,0.743 14.196,2.042l-0.5,-1.22c-1.517,2.887 -3.859,5.053 -6.279,7.175c-2.517,2.272 -5.155,4.403 -7.909,6.38c-5.371,3.71 -11.508,5.629 -18.071,4.894c-3.612,-0.41 -7.087,-1.611 -10.179,-3.515c-0.192,-0.112 -0.42,-0.142 -0.634,-0.085c-0.214,0.057 -0.397,0.196 -0.508,0.387c-0.111,0.192 -0.142,0.42 -0.085,0.633c0.057,0.215 0.196,0.397 0.388,0.508l0.015,-0.007Z" style="fill:#fff;fill-rule:nonzero;"/><path d="M411.495,103.355c7.184,-12.696 19.251,-21.408 29.001,-31.952c2.783,-2.97 5.329,-6.155 7.604,-9.528c0.6,-0.887 -0.837,-1.725 -1.446,-0.837c-8.075,12.111 -20.237,20.599 -29.591,31.591c-2.649,3.066 -4.997,6.377 -7.014,9.888c-0.111,0.192 -0.141,0.419 -0.084,0.633c0.057,0.214 0.196,0.397 0.388,0.508c0.192,0.111 0.42,0.141 0.634,0.084c0.214,-0.057 0.397,-0.196 0.508,-0.387Z" style="fill:#fff;fill-rule:nonzero;"/><path d="M452.225,86.162c-3.779,0.354 -7.438,1.827 -11.008,3.046c-3.454,1.184 -6.904,2.404 -10.388,3.522c-1.012,0.325 -0.579,1.927 0.45,1.603c3.367,-1.083 6.709,-2.266 10.054,-3.407c3.513,-1.205 7.18,-2.75 10.892,-3.104c1.063,-0.093 1.071,-1.76 0,-1.66Z" style="fill:#fff;fill-rule:nonzero;"/><path d="M368.794,116.599c2.133,5.219 5.81,9.663 10.54,12.739c5.559,3.609 11.905,4.511 18.432,4.569c4.142,0.036 8.284,-0.116 12.405,0.396c0.147,0.002 0.291,-0.036 0.418,-0.109c0.127,-0.073 0.233,-0.178 0.306,-0.305c0.074,-0.127 0.113,-0.271 0.112,-0.417c-0,-0.147 -0.04,-0.291 -0.114,-0.417c-3.571,-5.557 -7.358,-11.274 -12.816,-15.157c-2.823,-2.029 -6.093,-3.353 -9.534,-3.861c-3.991,-0.585 -8.017,-0.217 -12.007,0.173c-1.055,0.101 -1.07,1.768 0,1.66c3.824,-0.375 7.727,-0.765 11.566,-0.231c3.303,0.474 6.44,1.748 9.137,3.71c5.204,3.717 8.818,9.274 12.223,14.572l0.723,-1.248c-6.824,-0.845 -13.785,0.223 -20.573,-1.011c-5.442,-0.992 -10.422,-3.705 -14.204,-7.737c-2.123,-2.253 -3.816,-4.876 -4.995,-7.737c-0.397,-0.982 -2.002,-0.549 -1.604,0.44l-0.015,-0.029Z" style="fill:#fff;fill-rule:nonzero;"/><path d="M370.104,117.133c13.196,3.872 25.864,9.351 37.719,16.312c0.095,0.055 0.2,0.09 0.309,0.105c0.108,0.014 0.219,0.008 0.325,-0.021c0.106,-0.028 0.206,-0.077 0.293,-0.143c0.087,-0.067 0.16,-0.15 0.215,-0.245c0.055,-0.094 0.091,-0.199 0.105,-0.308c0.015,-0.108 0.008,-0.219 -0.02,-0.325c-0.028,-0.106 -0.077,-0.205 -0.144,-0.292c-0.066,-0.087 -0.15,-0.16 -0.244,-0.215c-11.982,-7.031 -24.783,-12.565 -38.117,-16.478c-0.212,-0.058 -0.44,-0.03 -0.632,0.08c-0.192,0.108 -0.332,0.289 -0.39,0.502c-0.059,0.212 -0.03,0.439 0.078,0.63c0.109,0.192 0.29,0.333 0.503,0.391l0,0.007Z" style="fill:#fff;fill-rule:nonzero;"/><path d="M299.986,207.395c-13.704,2.805 -26.803,8.013 -38.688,15.38c-11.826,7.263 -22.231,16.613 -30.706,27.593c-4.79,6.244 -8.829,13.027 -12.036,20.209c-0.434,0.967 1.005,1.812 1.446,0.837c5.64,-12.515 13.72,-23.784 23.767,-33.15c15.796,-14.815 35.408,-24.951 56.644,-29.274c1.047,-0.209 0.599,-1.812 -0.442,-1.602l0.015,0.007Z" style="fill:#fff;fill-rule:nonzero;"/><path d="M219.178,271.545c8.052,4.222 12.483,13.128 15.078,21.457c2.849,9.182 3.534,18.897 2.003,28.387c-0.854,5.319 -2.407,10.503 -4.619,15.416l1.308,-0.166c-5.939,-7.204 -10.318,-15.56 -12.86,-24.539c-0.029,-0.105 -0.079,-0.204 -0.146,-0.29c-0.068,-0.086 -0.152,-0.158 -0.247,-0.211c-0.095,-0.054 -0.2,-0.088 -0.309,-0.101c-0.108,-0.013 -0.219,-0.005 -0.324,0.024c-0.105,0.03 -0.204,0.079 -0.29,0.147c-0.086,0.067 -0.158,0.151 -0.212,0.246c-0.053,0.095 -0.088,0.2 -0.101,0.308c-0.013,0.109 -0.005,0.219 0.025,0.324c2.629,9.248 7.153,17.851 13.286,25.261c0.09,0.09 0.2,0.157 0.32,0.197c0.12,0.041 0.248,0.054 0.375,0.038c0.125,-0.016 0.246,-0.06 0.352,-0.13c0.107,-0.069 0.196,-0.162 0.261,-0.27c4.125,-9.143 6.032,-19.128 5.566,-29.145c-0.448,-9.585 -2.957,-19.422 -7.951,-27.701c-2.631,-4.374 -6.137,-8.293 -10.706,-10.689c-0.947,-0.498 -1.792,0.938 -0.838,1.444l0.028,-0.007Z" style="fill:#fff;fill-rule:nonzero;"/><path d="M218.687,271.783c3.798,18.417 2.187,37.537 -4.641,55.062c-1.945,4.977 -4.308,9.782 -7.062,14.362l1.518,0.203c-5.639,-19.12 -8.545,-40.765 1.597,-58.96c2.461,-4.472 5.705,-8.466 9.578,-11.794c0.817,-0.721 -0.369,-1.869 -1.178,-1.176c-7.113,6.048 -11.891,14.435 -14.457,23.312c-2.856,9.91 -2.892,20.347 -1.381,30.487c0.976,6.273 2.394,12.469 4.243,18.542c0.046,0.155 0.136,0.294 0.259,0.399c0.123,0.105 0.274,0.172 0.435,0.194c0.16,0.021 0.324,-0.004 0.47,-0.074c0.146,-0.069 0.269,-0.179 0.354,-0.317c9.844,-16.521 14.663,-35.544 13.872,-54.752c-0.229,-5.344 -0.899,-10.659 -2.002,-15.893c-0.225,-1.046 -1.829,-0.606 -1.605,0.44l-0,-0.036Z" style="fill:#fff;fill-rule:nonzero;"/><path d="M232.76,335.888c-0.368,-17.21 -3.043,-34.294 -7.951,-50.797c-1.388,-4.676 -2.971,-9.296 -4.713,-13.857c-0.383,-0.989 -1.988,-0.556 -1.605,0.447c6.134,16 10.09,32.75 11.761,49.801c0.47,4.793 0.723,9.607 0.853,14.435c0,0.22 0.087,0.431 0.244,0.587c0.156,0.156 0.367,0.243 0.587,0.243c0.221,0 0.432,-0.087 0.588,-0.243c0.156,-0.156 0.244,-0.367 0.244,-0.587l-0.008,-0.029Z" style="fill:#fff;fill-rule:nonzero;"/><path d="M208.812,340.861c2.327,-18.02 5.233,-35.955 8.717,-53.806c0.993,-5.082 2.029,-10.153 3.108,-15.215c0.225,-1.039 -1.38,-1.487 -1.604,-0.44c-3.856,17.981 -7.118,36.07 -9.788,54.268c-0.747,5.057 -1.445,10.11 -2.096,15.157c-0.137,1.061 1.533,1.047 1.663,0l-0,0.036Z" style="fill:#fff;fill-rule:nonzero;"/><path d="M280.288,214.432c2.617,15.424 -2.892,31.757 -13.67,42.995c-3.086,3.213 -6.61,5.978 -10.467,8.213l1.251,0.722c0.593,-4.398 1.183,-8.793 1.771,-13.186c0.48,-4.284 1.24,-8.533 2.277,-12.718c1.464,-5.398 3.978,-10.457 7.4,-14.886c3.423,-4.428 7.685,-8.14 12.544,-10.923c0.094,-0.055 0.178,-0.129 0.244,-0.216c0.067,-0.086 0.116,-0.186 0.144,-0.292c0.028,-0.106 0.035,-0.216 0.021,-0.325c-0.015,-0.108 -0.051,-0.213 -0.106,-0.308c-0.055,-0.095 -0.128,-0.178 -0.215,-0.244c-0.087,-0.067 -0.187,-0.115 -0.293,-0.144c-0.106,-0.028 -0.216,-0.035 -0.325,-0.02c-0.109,0.015 -0.214,0.05 -0.309,0.105c-6.29,3.627 -11.6,8.73 -15.469,14.868c-1.93,3.053 -3.471,6.333 -4.59,9.765c-1.292,4.304 -2.194,8.715 -2.696,13.179c-0.695,5.12 -1.381,10.24 -2.06,15.36c-0.087,0.649 0.765,0.995 1.25,0.721c14.103,-8.163 23.464,-23.29 25.3,-39.371c0.517,-4.567 0.385,-9.184 -0.39,-13.714c-0.174,-1.046 -1.779,-0.606 -1.605,0.448l-0.007,-0.029Z" style="fill:#fff;fill-rule:nonzero;"/><path d="M257.395,250.296c-4.132,3.454 -8.955,5.988 -14.146,7.434l1.077,0.801c1.366,-13.107 5.783,-27.369 17.999,-34.312c0.095,-0.055 0.178,-0.128 0.245,-0.215c0.066,-0.087 0.115,-0.186 0.143,-0.292c0.028,-0.106 0.035,-0.217 0.021,-0.325c-0.014,-0.109 -0.05,-0.214 -0.106,-0.308c-0.055,-0.095 -0.128,-0.178 -0.215,-0.245c-0.087,-0.066 -0.187,-0.115 -0.293,-0.143c-0.106,-0.028 -0.216,-0.035 -0.325,-0.021c-0.109,0.015 -0.214,0.05 -0.309,0.105c-12.729,7.218 -17.399,22.035 -18.794,35.742c0.001,0.127 0.032,0.253 0.089,0.367c0.057,0.114 0.14,0.214 0.242,0.291c0.102,0.078 0.22,0.131 0.346,0.155c0.125,0.025 0.255,0.021 0.379,-0.012c5.462,-1.533 10.534,-4.213 14.876,-7.86c0.824,-0.722 -0.361,-1.862 -1.179,-1.177l-0.05,0.015Z" style="fill:#fff;fill-rule:nonzero;"/><path d="M280.274,214.432l-17.934,38.744l-5.111,11.035c-0.448,0.967 0.983,1.812 1.446,0.845l17.941,-38.744l5.111,-11.042c0.441,-0.96 -0.991,-1.805 -1.446,-0.838l-0.007,0Z" style="fill:#fff;fill-rule:nonzero;"/><path d="M244.847,257.968c4.236,-5.088 8.486,-10.198 12.115,-15.741c2.891,-4.395 5.284,-9.556 9.346,-12.992c0.817,-0.721 -0.368,-1.869 -1.178,-1.176c-3.976,3.392 -6.412,8.387 -9.187,12.717c-3.615,5.673 -7.952,10.87 -12.289,16.045c-0.68,0.815 0.491,1.999 1.178,1.176l0.015,-0.029Z" style="fill:#fff;fill-rule:nonzero;"/><path d="M241.796,236.994c-18.309,-0.041 -36.28,4.929 -51.959,14.37c-0.095,0.056 -0.178,0.129 -0.244,0.217c-0.067,0.087 -0.115,0.187 -0.143,0.293c-0.028,0.106 -0.035,0.217 -0.02,0.326c0.015,0.109 0.052,0.213 0.107,0.308c0.056,0.095 0.129,0.178 0.217,0.244c0.088,0.067 0.188,0.115 0.294,0.143c0.106,0.028 0.217,0.034 0.326,0.02c0.109,-0.015 0.214,-0.052 0.309,-0.107c12.008,-7.238 25.424,-11.834 39.352,-13.483c3.904,-0.452 7.831,-0.673 11.761,-0.664c0.221,0 0.432,-0.087 0.588,-0.243c0.156,-0.156 0.244,-0.366 0.244,-0.587c-0,-0.22 -0.088,-0.431 -0.244,-0.586c-0.156,-0.156 -0.367,-0.244 -0.588,-0.244l0,-0.007Z" style="fill:#fff;fill-rule:nonzero;"/><path d="M189.605,251.819c-1.684,8.415 -3.419,17.098 -8.175,24.402c-2.078,3.277 -4.83,6.074 -8.075,8.207c-3.274,2.1 -6.946,3.435 -10.597,4.734c-4.113,1.443 -8.262,2.931 -11.97,5.283l1.221,0.939l4.496,-13.411c1.388,-4.15 2.755,-8.358 5.111,-12.082c3.86,-6.106 9.954,-10.386 16.467,-13.301c3.833,-1.678 7.817,-2.988 11.898,-3.912c1.041,-0.246 0.6,-1.848 -0.448,-1.603c-7.344,1.732 -14.645,4.446 -20.76,8.95c-2.93,2.119 -5.506,4.686 -7.634,7.607c-2.537,3.53 -4.106,7.6 -5.494,11.693c-1.771,5.196 -3.491,10.407 -5.24,15.618c-0.041,0.159 -0.034,0.326 0.019,0.481c0.054,0.155 0.152,0.291 0.282,0.391c0.13,0.099 0.286,0.159 0.45,0.171c0.164,0.012 0.327,-0.024 0.47,-0.104c6.824,-4.331 15.101,-5.486 21.997,-9.657c6.896,-4.172 11.233,-11.303 13.828,-18.766c1.594,-4.962 2.85,-10.026 3.759,-15.157c0.21,-1.046 -1.395,-1.494 -1.605,-0.447l0,-0.036Z" style="fill:#fff;fill-rule:nonzero;"/><path d="M189.722,251.653c-5.734,-3.459 -12.554,-4.66 -19.127,-3.37c-7.012,1.371 -12.563,5.867 -17.847,10.392c-2.928,2.512 -5.899,5.053 -7.728,8.539c-0.061,0.111 -0.097,0.233 -0.105,0.36c-0.007,0.126 0.014,0.252 0.062,0.369c0.047,0.117 0.121,0.222 0.215,0.307c0.094,0.085 0.206,0.147 0.327,0.184c4.763,1.341 9.682,2.05 14.631,2.107c0.207,-0.019 0.401,-0.116 0.542,-0.27c0.141,-0.154 0.218,-0.355 0.218,-0.564c0,-0.208 -0.077,-0.409 -0.218,-0.563c-0.141,-0.154 -0.335,-0.251 -0.542,-0.27c-4.8,-0.051 -9.572,-0.738 -14.19,-2.043l0.499,1.22c1.518,-2.887 3.86,-5.052 6.281,-7.174c2.517,-2.271 5.157,-4.401 7.908,-6.38c5.371,-3.71 11.501,-5.63 18.072,-4.894c3.61,0.411 7.085,1.611 10.178,3.515c0.91,0.556 1.749,-0.881 0.838,-1.443l-0.014,-0.022Z" style="fill:#fff;fill-rule:nonzero;"/><path d="M188.253,251.292c-7.178,12.696 -19.242,21.407 -28.993,31.952c-2.785,2.97 -5.33,6.156 -7.612,9.527c-0.593,0.888 0.846,1.725 1.446,0.837c8.103,-12.125 20.225,-20.591 29.586,-31.613c2.647,-3.065 4.995,-6.376 7.012,-9.887c0.055,-0.095 0.091,-0.2 0.105,-0.308c0.015,-0.109 0.008,-0.22 -0.02,-0.325c-0.028,-0.106 -0.077,-0.206 -0.144,-0.293c-0.066,-0.087 -0.15,-0.16 -0.245,-0.215c-0.095,-0.055 -0.199,-0.091 -0.308,-0.105c-0.109,-0.014 -0.22,-0.008 -0.325,0.02c-0.107,0.029 -0.206,0.077 -0.293,0.144c-0.087,0.066 -0.161,0.149 -0.216,0.244l0.007,0.022Z" style="fill:#fff;fill-rule:nonzero;"/><path d="M147.521,268.491c3.787,-0.353 7.438,-1.826 11.016,-3.045c3.456,-1.184 6.903,-2.404 10.381,-3.515c1.019,-0.332 0.585,-1.935 -0.442,-1.603c-3.368,1.076 -6.708,2.26 -10.055,3.4c-3.513,1.205 -7.178,2.75 -10.9,3.103c-1.056,0.102 -1.063,1.762 -0,1.66Z" style="fill:#fff;fill-rule:nonzero;"/><path d="M230.953,238.048c-2.128,-5.218 -5.803,-9.66 -10.531,-12.732c-5.567,-3.609 -11.913,-4.518 -18.433,-4.576c-4.142,0 -8.284,0.115 -12.405,-0.397c-0.146,0.001 -0.289,0.041 -0.414,0.114c-0.127,0.073 -0.231,0.178 -0.304,0.304c-0.073,0.126 -0.112,0.269 -0.113,0.415c-0,0.146 0.037,0.289 0.109,0.416c3.57,5.557 7.365,11.273 12.816,15.156c2.822,2.034 6.092,3.363 9.534,3.876c3.99,0.585 8.017,0.217 12.007,-0.173c1.055,-0.101 1.063,-1.769 -0,-1.66c-3.831,0.375 -7.735,0.772 -11.566,0.231c-3.299,-0.477 -6.432,-1.747 -9.13,-3.703c-5.204,-3.724 -8.818,-9.281 -12.223,-14.579l-0.723,1.249c6.824,0.851 13.785,-0.224 20.573,1.01c5.443,0.996 10.422,3.71 14.204,7.744c2.123,2.25 3.814,4.87 4.988,7.73c0.397,0.982 2.009,0.556 1.604,-0.44l0.007,0.015Z" style="fill:#fff;fill-rule:nonzero;"/><path d="M229.66,237.514c-13.195,-3.872 -25.864,-9.351 -37.719,-16.311c-0.192,-0.112 -0.42,-0.142 -0.634,-0.085c-0.214,0.057 -0.397,0.196 -0.508,0.387c-0.111,0.192 -0.142,0.42 -0.085,0.633c0.057,0.214 0.197,0.397 0.389,0.508c11.981,7.029 24.782,12.561 38.116,16.47c0.105,0.029 0.215,0.037 0.324,0.024c0.108,-0.014 0.213,-0.049 0.308,-0.103c0.095,-0.054 0.178,-0.126 0.245,-0.212c0.067,-0.086 0.117,-0.185 0.146,-0.29c0.028,-0.105 0.036,-0.215 0.023,-0.323c-0.014,-0.109 -0.048,-0.213 -0.102,-0.308c-0.055,-0.095 -0.127,-0.178 -0.213,-0.245c-0.086,-0.067 -0.185,-0.116 -0.29,-0.145Z" style="fill:#fff;fill-rule:nonzero;"/><path d="M24.852,457.546l-6.672,-0l-0,-51.395l-18.18,-0l0,-5.918l43.032,-0l-0,5.918l-18.18,-0l-0,51.395Z" style="fill:#fff;fill-rule:nonzero;"/><path d="M109.534,428.813c0,9.179 -2.323,16.395 -6.968,21.654c-4.646,5.258 -11.106,7.875 -19.38,7.846c-8.458,-0 -14.983,-2.575 -19.575,-7.725c-4.593,-5.146 -6.889,-12.438 -6.889,-21.867c0,-9.329 2.303,-16.563 6.911,-21.697c4.607,-5.134 11.151,-7.703 19.632,-7.708c8.25,-0 14.689,2.615 19.315,7.845c4.626,5.231 6.945,12.447 6.954,21.652Zm-45.742,-0c-0,7.762 1.655,13.65 4.966,17.662c3.31,4.013 8.13,6.017 14.457,6.013c6.361,-0 11.163,-2 14.406,-6c3.244,-3.996 4.868,-9.888 4.872,-17.675c0,-7.696 -1.616,-13.546 -4.85,-17.545c-3.233,-3.998 -8.016,-5.99 -14.349,-5.976c-6.361,0 -11.197,2.006 -14.507,6.019c-3.311,4.013 -4.976,9.847 -4.995,17.502Z" style="fill:#fff;fill-rule:nonzero;"/><path d="M130.375,457.546l0,-57.313l6.672,-0l0,51.28l25.3,-0l0,6.033l-31.972,-0Z" style="fill:#fff;fill-rule:nonzero;"/><path d="M205.392,427.521l19.517,-0l0,27.904c-3.029,0.958 -6.126,1.683 -9.267,2.167c-3.612,0.521 -7.258,0.762 -10.908,0.721c-8.674,-0 -15.44,-2.584 -20.297,-7.746c-4.858,-5.163 -7.268,-12.396 -7.229,-21.696c-0,-5.963 1.205,-11.183 3.614,-15.661c2.312,-4.402 5.923,-7.987 10.344,-10.271c4.506,-2.367 9.781,-3.551 15.824,-3.551c5.875,-0.048 11.699,1.099 17.117,3.371l-2.595,5.882c-4.712,-2.093 -9.799,-3.213 -14.956,-3.291c-6.993,-0 -12.45,2.076 -16.373,6.228c-3.923,4.153 -5.886,9.926 -5.891,17.322c0,7.733 1.891,13.6 5.674,17.596c3.783,4 9.34,6 16.669,6c3.907,-0.008 7.799,-0.479 11.595,-1.4l-0,-17.621l-12.838,0l0,-5.954Z" style="fill:#fff;fill-rule:nonzero;"/><path d="M282.811,457.546l-7.149,-18.229l-23.008,-0l-7.063,18.229l-6.758,-0l22.697,-57.544l5.61,-0l22.575,57.544l-6.904,-0Zm-9.231,-24.229l-6.672,-17.755c-0.867,-2.242 -1.758,-4.999 -2.674,-8.271c-0.658,2.804 -1.484,5.566 -2.472,8.272l-6.752,17.754l18.57,-0Z" style="fill:#fff;fill-rule:nonzero;"/><path d="M334.263,400.233l17.045,-0c7.908,-0 13.621,1.15 17.139,3.45c3.518,2.3 5.279,5.932 5.284,10.898c0.111,3.002 -0.807,5.952 -2.602,8.365c-1.858,2.3 -4.528,3.8 -7.46,4.192l0,0.399c4.033,0.755 6.997,2.25 8.891,4.48c1.894,2.233 2.843,5.262 2.848,9.083c0,5.146 -1.8,9.175 -5.4,12.087c-3.599,2.913 -8.604,4.371 -15.013,4.375l-20.732,0l-0,-57.329Zm9.397,23.679l9.029,0c3.923,0 6.79,-0.62 8.602,-1.862c1.812,-1.242 2.715,-3.35 2.711,-6.329c-0,-2.694 -0.976,-4.643 -2.928,-5.846c-1.952,-1.203 -5.048,-1.802 -9.289,-1.797l-8.139,-0l0.014,15.835Zm0,7.608l0,18.129l9.976,0c3.927,0 6.891,-0.75 8.891,-2.25c2,-1.504 3,-3.875 3,-7.117c-0,-2.979 -1.02,-5.187 -3.058,-6.625c-2.039,-1.441 -5.142,-2.162 -9.31,-2.166l-9.499,0.029Z" style="fill:#fff;fill-rule:nonzero;"/><path d="M430.996,457.546l-5.733,-15.913l-21.909,0l-5.617,15.913l-9.932,-0l21.476,-57.544l10.207,-0l21.454,57.544l-9.946,-0Zm-8.204,-23.992l-5.379,-15.604c-0.396,-1.037 -0.939,-2.691 -1.633,-4.935c-0.694,-2.245 -1.171,-3.898 -1.446,-4.937c-0.81,3.572 -1.841,7.092 -3.086,10.539l-5.183,14.933l16.727,0.004Z" style="fill:#fff;fill-rule:nonzero;"/><path d="M500.404,457.546l-10.841,-0l-18.021,-25.983l-5.538,4.512l0,21.442l-9.396,-0l0,-57.284l9.396,-0l0,27.363c2.567,-3.133 5.117,-6.15 7.654,-9.054l15.513,-18.309l10.679,-0c-10.05,11.774 -17.246,20.15 -21.592,25.13l22.146,32.183Z" style="fill:#fff;fill-rule:nonzero;"/><rect x="516.021" y="400.233" width="9.396" height="57.313" style="fill:#fff;fill-rule:nonzero;"/><path d="M557.979,434.654l0,22.892l-9.396,-0l0,-57.313l16.213,-0c7.412,-0 12.896,1.385 16.454,4.157c3.558,2.771 5.338,6.953 5.342,12.543c-0,7.138 -3.717,12.221 -11.154,15.25l16.212,25.363l-10.658,-0l-13.738,-22.892l-9.275,0Zm0,-7.758l6.509,-0c4.375,-0 7.541,-0.813 9.495,-2.433c1.959,-1.621 2.942,-4.03 2.95,-7.217c0,-3.245 -1.058,-5.571 -3.179,-6.981c-2.125,-1.444 -5.312,-2.122 -9.583,-2.122l-6.204,-0l0.012,18.753Z" style="fill:#fff;fill-rule:nonzero;"/></g></svg>