<?xml version="1.0" encoding="UTF-8" standalone="no"?>
<!DOCTYPE svg PUBLIC "-//W3C//DTD SVG 1.1//EN" "http://www.w3.org/Graphics/SVG/1.1/DTD/svg11.dtd">
<svg width="100%" height="100%" viewBox="0 0 3080 2080" version="1.1" xmlns="http://www.w3.org/2000/svg" xmlns:xlink="http://www.w3.org/1999/xlink" xml:space="preserve" xmlns:serif="http://www.serif.com/" style="fill-rule:evenodd;clip-rule:evenodd;stroke-linejoin:round;stroke-miterlimit:2;">
    <g transform="matrix(1,0,0,0.675325,0,0)">
        <rect x="0" y="0" width="3080" height="3080" style="fill:rgb(248,243,236);"/>
    </g>
    <g transform="matrix(4.60075,0,0,4.60075,-5545.16,-6045.16)">
        <g transform="matrix(1,0,0,1,1240.12,1363.49)">
            <path d="M293.025,45.066L209.665,45.066C203.709,45.066 201.352,45.16 198.208,40.165L193.105,40.165C192.512,51.605 191.218,65.39 189.917,78.642L196.524,78.642C199.256,70.768 201.165,65.275 203.752,61.117C207.403,55.055 210.764,53.684 222.359,53.684L240.351,53.684L240.351,155.212C240.351,171.971 238.63,173.92 219.388,175.212L219.388,181.426L282.081,181.426L282.081,175.212C262.348,173.92 260.591,171.798 260.591,155.212L260.591,53.684L280.238,53.684C291.948,53.684 293.973,55.185 297.413,60.627C298.416,62.29 299.3,64.022 300.059,65.809L300.059,43.788C298.338,44.748 296.307,45.066 293.025,45.066Z" style="fill:rgb(239,232,223);fill-rule:nonzero;"/>
        </g>
        <g transform="matrix(1,0,0,1,1240.12,1363.49)">
            <path d="M349.328,237.391C361.436,234.504 377.65,225.208 377.65,205.901C377.65,195.277 372.59,187.482 365.18,182.444C358.154,177.717 348.237,175.104 332.442,175.104L297.253,175.104L297.253,311.464L328.336,311.464C343.458,311.464 354.815,309.22 365.708,303.171C377.997,296.459 386.049,284.976 386.049,270.75C386.078,250.664 369.835,240.863 349.328,237.391ZM314.443,195.183C314.443,188.882 315.036,186.464 316.677,185.129C318.628,183.736 322.409,182.964 328.141,182.964C346.762,182.964 356.333,193.501 356.333,208.824C356.333,225.728 347.253,234.843 324.708,234.843L314.443,234.843L314.443,195.183ZM332.55,303.655C318.281,303.655 314.443,299.758 314.443,284.658L314.443,242.508L324.035,242.508C349.292,242.508 363.547,251.819 363.547,272.879C363.554,294.575 348.157,303.612 332.558,303.655L332.55,303.655Z" style="fill:rgb(239,232,223);fill-rule:nonzero;"/>
        </g>
        <g transform="matrix(1,0,0,1,1240.12,1363.49)">
            <rect x="295.555" y="0" width="4.995" height="353.023" style="fill:rgb(239,232,223);"/>
        </g>
        <g transform="matrix(1,0,0,1,1240.12,1363.49)">
            <path d="M299.776,147.237C313.48,144.432 326.579,139.225 338.463,131.857C350.28,124.59 360.678,115.24 369.149,104.264C373.937,98.02 377.976,91.237 381.184,84.055C381.611,83.081 380.18,82.236 379.739,83.21C374.098,95.726 366.019,106.995 355.971,116.36C345.868,125.829 334.161,133.431 321.397,138.814C314.287,141.818 306.894,144.103 299.328,145.635C298.28,145.844 298.721,147.446 299.769,147.237L299.776,147.237Z" style="fill:rgb(239,232,223);fill-rule:nonzero;"/>
        </g>
        <g transform="matrix(1,0,0,1,1240.12,1363.49)">
            <path d="M380.577,83.103C372.518,78.88 368.093,69.974 365.491,61.645C362.65,52.462 361.964,42.748 363.489,33.258C364.343,27.939 365.896,22.755 368.108,17.842L366.8,18.015C372.744,25.216 377.123,33.573 379.659,42.555C379.688,42.66 379.738,42.758 379.805,42.844C379.872,42.93 379.955,43.002 380.05,43.057C380.145,43.11 380.25,43.145 380.358,43.159C380.467,43.172 380.577,43.165 380.682,43.135C380.788,43.107 380.886,43.057 380.973,42.99C381.059,42.923 381.131,42.84 381.185,42.745C381.239,42.65 381.274,42.546 381.287,42.438C381.301,42.329 381.293,42.22 381.264,42.114C378.635,32.866 374.111,24.264 367.978,16.853C367.888,16.764 367.778,16.696 367.658,16.656C367.537,16.615 367.409,16.602 367.283,16.618C367.157,16.634 367.037,16.679 366.93,16.748C366.824,16.818 366.735,16.91 366.67,17.019C362.547,26.162 360.643,36.147 361.111,46.163C361.559,55.755 364.067,65.585 369.062,73.864C371.686,78.238 375.192,82.157 379.768,84.553C380.715,85.051 381.553,83.615 380.606,83.11L380.577,83.103Z" style="fill:rgb(239,232,223);fill-rule:nonzero;"/>
        </g>
        <g transform="matrix(1,0,0,1,1240.12,1363.49)">
            <path d="M381.069,82.864C377.262,64.447 378.874,45.324 385.71,27.802C387.652,22.823 390.015,18.018 392.773,13.439L391.247,13.237C396.885,32.356 399.791,54.001 389.65,72.197C387.189,76.66 383.948,80.647 380.079,83.968C379.262,84.69 380.44,85.83 381.257,85.138C388.363,79.09 393.148,70.702 395.715,61.825C398.606,51.923 398.606,41.479 397.095,31.338C396.116,25.067 394.698,18.871 392.852,12.797C392.805,12.642 392.715,12.504 392.591,12.4C392.468,12.295 392.317,12.229 392.156,12.208C391.996,12.188 391.833,12.214 391.687,12.284C391.541,12.354 391.418,12.464 391.334,12.602C381.49,29.121 376.671,48.141 377.462,67.347C377.7,72.713 378.382,78.05 379.501,83.305C379.718,84.351 381.323,83.911 381.105,82.864L381.069,82.864Z" style="fill:rgb(239,232,223);fill-rule:nonzero;"/>
        </g>
        <g transform="matrix(1,0,0,1,1240.12,1363.49)">
            <path d="M367.017,18.766C367.385,35.976 370.06,53.06 374.968,69.562C376.361,74.24 377.934,78.859 379.688,83.42C380.071,84.409 381.676,83.976 381.293,82.98C375.156,66.988 371.198,50.245 369.525,33.201C369.043,28.389 368.761,23.577 368.679,18.766C368.679,18.546 368.592,18.334 368.436,18.179C368.28,18.023 368.068,17.936 367.848,17.936C367.627,17.936 367.416,18.023 367.26,18.179C367.104,18.334 367.017,18.546 367.017,18.766Z" style="fill:rgb(239,232,223);fill-rule:nonzero;"/>
        </g>
        <g transform="matrix(1,0,0,1,1240.12,1363.49)">
            <path d="M390.935,13.786C388.613,31.81 385.709,49.748 382.225,67.599C381.232,72.675 380.196,77.745 379.117,82.807C378.893,83.846 380.498,84.293 380.722,83.247C384.577,65.27 387.839,47.181 390.509,28.978C391.251,23.921 391.95,18.869 392.605,13.822C392.743,12.768 391.073,12.775 390.935,13.822L390.935,13.786Z" style="fill:rgb(239,232,223);fill-rule:nonzero;"/>
        </g>
        <g transform="matrix(1,0,0,1,1240.12,1363.49)">
            <path d="M319.459,140.222C316.85,124.79 322.35,108.465 333.135,97.22C336.223,94.007 339.746,91.242 343.603,89.006L342.345,88.284C341.757,92.678 341.169,97.073 340.581,101.471C340.096,105.755 339.333,110.003 338.297,114.188C335.342,125.098 328.168,134.39 318.353,140.02C318.173,140.137 318.045,140.319 317.996,140.528C317.947,140.737 317.98,140.957 318.088,141.143C318.197,141.328 318.373,141.465 318.58,141.525C318.786,141.584 319.008,141.562 319.199,141.463C325.497,137.838 330.812,132.732 334.683,126.587C336.612,123.535 338.154,120.255 339.273,116.823C340.558,112.517 341.458,108.107 341.962,103.643C342.66,98.524 343.35,93.404 344.029,88.284C344.116,87.635 343.262,87.288 342.771,87.562C328.675,95.725 319.315,110.853 317.471,126.934C316.952,131.5 317.081,136.117 317.854,140.647C318.035,141.694 319.64,141.254 319.459,140.207L319.459,140.222Z" style="fill:rgb(239,232,223);fill-rule:nonzero;"/>
        </g>
        <g transform="matrix(1,0,0,1,1240.12,1363.49)">
            <path d="M342.352,104.351C346.486,100.898 351.308,98.364 356.499,96.917L355.45,96.115C354.084,109.23 349.631,123.492 337.444,130.428C337.264,130.545 337.136,130.728 337.087,130.937C337.037,131.145 337.071,131.365 337.179,131.551C337.288,131.736 337.464,131.873 337.67,131.933C337.877,131.992 338.099,131.97 338.29,131.871C351.012,124.654 355.689,109.829 357.084,96.123C357.083,95.995 357.053,95.869 356.995,95.755C356.938,95.641 356.855,95.541 356.753,95.464C356.651,95.387 356.533,95.334 356.408,95.309C356.282,95.284 356.153,95.289 356.029,95.322C350.577,96.869 345.518,99.558 341.188,103.21C340.372,103.932 341.55,105.073 342.367,104.387L342.352,104.351Z" style="fill:rgb(239,232,223);fill-rule:nonzero;"/>
        </g>
        <g transform="matrix(1,0,0,1,1240.12,1363.49)">
            <path d="M319.504,140.215L337.438,101.478L342.549,90.435C342.997,89.468 341.558,88.624 341.103,89.598L323.169,128.335L318.058,139.377C317.61,140.337 319.049,141.182 319.504,140.215Z" style="fill:rgb(239,232,223);fill-rule:nonzero;"/>
        </g>
        <g transform="matrix(1,0,0,1,1240.12,1363.49)">
            <path d="M354.923,96.715C350.687,101.81 346.436,106.913 342.808,112.456C339.916,116.851 337.523,122.012 333.461,125.448C332.644,126.169 333.823,127.317 334.632,126.624C338.615,123.232 341.051,118.237 343.827,113.907C347.441,108.234 351.778,103.037 356.115,97.862C356.795,97.047 355.624,95.863 354.944,96.685L354.922,96.715L354.923,96.715Z" style="fill:rgb(239,232,223);fill-rule:nonzero;"/>
        </g>
        <g transform="matrix(1,0,0,1,1240.12,1363.49)">
            <path d="M357.959,117.645C372.158,117.669 386.201,114.688 399.162,108.898C402.86,107.245 406.452,105.368 409.918,103.275C410.013,103.22 410.096,103.147 410.163,103.06C410.23,102.973 410.278,102.874 410.307,102.768C410.335,102.662 410.342,102.552 410.327,102.443C410.313,102.334 410.277,102.23 410.222,102.135C410.167,102.04 410.093,101.957 410.006,101.89C409.919,101.824 409.82,101.775 409.714,101.747C409.608,101.719 409.497,101.712 409.388,101.727C409.28,101.741 409.175,101.777 409.08,101.832C397.071,109.068 383.655,113.665 369.727,115.314C365.823,115.766 361.896,115.988 357.966,115.978C357.746,115.978 357.535,116.065 357.378,116.221C357.223,116.377 357.135,116.588 357.135,116.808C357.135,117.028 357.223,117.239 357.378,117.395C357.535,117.551 357.746,117.638 357.966,117.638L357.959,117.645Z" style="fill:rgb(239,232,223);fill-rule:nonzero;"/>
        </g>
        <g transform="matrix(1,0,0,1,1240.12,1363.49)">
            <path d="M410.15,102.828C411.827,94.412 413.569,85.737 418.325,78.425C420.404,75.15 423.154,72.353 426.392,70.219C429.675,68.119 433.346,66.784 436.992,65.485C441.104,64.041 445.258,62.554 448.967,60.201L447.746,59.263L443.25,72.673C441.862,76.823 440.496,81.031 438.137,84.755C434.279,90.861 428.187,95.141 421.671,98.057C417.837,99.734 413.855,101.044 409.774,101.969C408.733,102.214 409.174,103.817 410.215,103.571C417.558,101.846 424.867,99.125 430.983,94.629C433.912,92.505 436.488,89.936 438.617,87.014C441.154,83.485 442.721,79.414 444.108,75.322C445.879,70.125 447.6,64.914 449.35,59.703C449.387,59.544 449.379,59.378 449.325,59.223C449.271,59.069 449.171,58.934 449.042,58.835C448.912,58.735 448.754,58.676 448.592,58.663C448.429,58.651 448.267,58.686 448.121,58.765C441.304,63.095 433.029,64.25 426.125,68.429C419.221,72.608 414.892,79.725 412.304,87.195C410.706,92.155 409.45,97.219 408.545,102.351C408.336,103.398 409.94,103.845 410.15,102.799L410.15,102.828Z" style="fill:rgb(239,232,223);fill-rule:nonzero;"/>
        </g>
        <g transform="matrix(1,0,0,1,1240.12,1363.49)">
            <path d="M410.034,102.994C415.763,106.467 422.583,107.679 429.163,106.393C436.167,105.022 441.725,100.525 447.008,96C449.938,93.488 452.9,90.948 454.733,87.462C454.796,87.351 454.833,87.228 454.842,87.102C454.846,86.976 454.825,86.849 454.779,86.732C454.729,86.615 454.658,86.51 454.562,86.425C454.471,86.34 454.358,86.278 454.237,86.242C449.471,84.902 444.55,84.196 439.6,84.142C439.379,84.142 439.167,84.229 439.012,84.385C438.854,84.54 438.767,84.751 438.767,84.972C438.767,85.192 438.854,85.403 439.012,85.558C439.167,85.714 439.379,85.802 439.6,85.802C444.4,85.859 449.175,86.545 453.796,87.844L453.296,86.624C451.779,89.511 449.437,91.677 447.017,93.799C444.5,96.071 441.862,98.202 439.108,100.179C433.737,103.889 427.6,105.808 421.037,105.073C417.425,104.663 413.95,103.462 410.858,101.558C410.666,101.446 410.438,101.416 410.224,101.473C410.01,101.53 409.827,101.669 409.716,101.86C409.605,102.052 409.574,102.28 409.631,102.493C409.688,102.708 409.827,102.89 410.019,103.001L410.034,102.994Z" style="fill:rgb(239,232,223);fill-rule:nonzero;"/>
        </g>
        <g transform="matrix(1,0,0,1,1240.12,1363.49)">
            <path d="M411.495,103.355C418.679,90.659 430.746,81.947 440.496,71.403C443.279,68.433 445.825,65.248 448.1,61.875C448.7,60.988 447.263,60.15 446.654,61.038C438.579,73.149 426.417,81.637 417.063,92.629C414.414,95.695 412.066,99.006 410.049,102.517C409.938,102.709 409.908,102.936 409.965,103.15C410.022,103.364 410.161,103.547 410.353,103.658C410.545,103.769 410.773,103.799 410.987,103.742C411.201,103.685 411.384,103.546 411.495,103.355Z" style="fill:rgb(239,232,223);fill-rule:nonzero;"/>
        </g>
        <g transform="matrix(1,0,0,1,1240.12,1363.49)">
            <path d="M452.225,86.162C448.446,86.516 444.787,87.989 441.217,89.208C437.763,90.392 434.313,91.612 430.829,92.73C429.817,93.055 430.25,94.657 431.279,94.333C434.646,93.25 437.988,92.067 441.333,90.926C444.846,89.721 448.513,88.176 452.225,87.822C453.288,87.729 453.296,86.062 452.225,86.162Z" style="fill:rgb(239,232,223);fill-rule:nonzero;"/>
        </g>
        <g transform="matrix(1,0,0,1,1240.12,1363.49)">
            <path d="M368.794,116.599C370.927,121.818 374.604,126.262 379.334,129.338C384.893,132.947 391.239,133.849 397.766,133.907C401.908,133.943 406.05,133.791 410.171,134.303C410.318,134.305 410.462,134.267 410.589,134.194C410.716,134.121 410.822,134.016 410.895,133.889C410.969,133.762 411.008,133.618 411.007,133.472C411.007,133.325 410.967,133.181 410.893,133.055C407.322,127.498 403.535,121.781 398.077,117.898C395.254,115.869 391.984,114.545 388.543,114.037C384.552,113.452 380.526,113.82 376.536,114.21C375.481,114.311 375.466,115.978 376.536,115.87C380.36,115.495 384.263,115.105 388.102,115.639C391.405,116.113 394.542,117.387 397.239,119.349C402.443,123.066 406.057,128.623 409.462,133.921L410.185,132.673C403.361,131.828 396.4,132.896 389.612,131.662C384.17,130.67 379.19,127.957 375.408,123.925C373.285,121.672 371.592,119.049 370.413,116.188C370.016,115.206 368.411,115.639 368.809,116.628L368.794,116.599Z" style="fill:rgb(239,232,223);fill-rule:nonzero;"/>
        </g>
        <g transform="matrix(1,0,0,1,1240.12,1363.49)">
            <path d="M370.104,117.133C383.3,121.005 395.968,126.484 407.823,133.445C407.918,133.5 408.023,133.535 408.132,133.55C408.24,133.564 408.351,133.558 408.457,133.529C408.563,133.501 408.663,133.452 408.75,133.386C408.837,133.319 408.91,133.236 408.965,133.141C409.02,133.047 409.056,132.942 409.07,132.833C409.085,132.725 409.078,132.614 409.05,132.508C409.022,132.402 408.973,132.303 408.906,132.216C408.84,132.129 408.756,132.056 408.662,132.001C396.68,124.97 383.879,119.436 370.545,115.523C370.333,115.465 370.105,115.493 369.913,115.603C369.721,115.711 369.581,115.892 369.523,116.105C369.464,116.317 369.493,116.544 369.601,116.735C369.71,116.927 369.891,117.068 370.104,117.126L370.104,117.133Z" style="fill:rgb(239,232,223);fill-rule:nonzero;"/>
        </g>
        <g transform="matrix(1,0,0,1,1240.12,1363.49)">
            <path d="M299.986,207.395C286.282,210.2 273.183,215.408 261.298,222.775C249.472,230.038 239.067,239.388 230.592,250.368C225.802,256.612 221.763,263.395 218.556,270.577C218.122,271.544 219.561,272.389 220.002,271.414C225.642,258.899 233.722,247.63 243.769,238.264C259.565,223.449 279.177,213.313 300.413,208.99C301.46,208.781 301.012,207.178 299.971,207.388L299.986,207.395Z" style="fill:rgb(239,232,223);fill-rule:nonzero;"/>
        </g>
        <g transform="matrix(1,0,0,1,1240.12,1363.49)">
            <path d="M219.178,271.545C227.23,275.767 231.661,284.673 234.256,293.002C237.105,302.184 237.79,311.899 236.259,321.389C235.405,326.708 233.852,331.892 231.64,336.805L232.948,336.639C227.009,329.435 222.63,321.079 220.088,312.1C220.059,311.995 220.009,311.896 219.942,311.81C219.874,311.724 219.79,311.652 219.695,311.599C219.6,311.545 219.495,311.511 219.386,311.498C219.278,311.485 219.167,311.493 219.062,311.522C218.957,311.552 218.858,311.601 218.772,311.669C218.686,311.736 218.614,311.82 218.56,311.915C218.507,312.01 218.472,312.115 218.459,312.223C218.446,312.332 218.454,312.442 218.484,312.547C221.113,321.795 225.637,330.398 231.77,337.808C231.86,337.898 231.97,337.965 232.09,338.005C232.21,338.046 232.338,338.059 232.465,338.043C232.59,338.027 232.711,337.983 232.817,337.913C232.924,337.844 233.013,337.751 233.078,337.643C237.203,328.5 239.11,318.515 238.644,308.498C238.196,298.913 235.687,289.076 230.693,280.797C228.062,276.423 224.556,272.504 219.987,270.108C219.04,269.61 218.195,271.046 219.149,271.552L219.177,271.545L219.178,271.545Z" style="fill:rgb(239,232,223);fill-rule:nonzero;"/>
        </g>
        <g transform="matrix(1,0,0,1,1240.12,1363.49)">
            <path d="M218.687,271.783C222.485,290.2 220.874,309.32 214.046,326.845C212.101,331.822 209.738,336.627 206.984,341.207L208.502,341.41C202.863,322.29 199.957,300.645 210.099,282.45C212.56,277.978 215.804,273.984 219.677,270.656C220.494,269.935 219.308,268.787 218.499,269.48C211.386,275.528 206.608,283.915 204.042,292.792C201.186,302.702 201.15,313.139 202.661,323.279C203.637,329.552 205.055,335.748 206.904,341.821C206.95,341.976 207.04,342.115 207.163,342.22C207.286,342.325 207.437,342.392 207.598,342.414C207.758,342.435 207.922,342.41 208.068,342.34C208.214,342.271 208.337,342.161 208.422,342.023C218.266,325.502 223.085,306.479 222.294,287.271C222.065,281.927 221.395,276.612 220.292,271.378C220.067,270.332 218.463,270.772 218.687,271.818L218.687,271.782L218.687,271.783Z" style="fill:rgb(239,232,223);fill-rule:nonzero;"/>
        </g>
        <g transform="matrix(1,0,0,1,1240.12,1363.49)">
            <path d="M232.76,335.888C232.392,318.678 229.717,301.594 224.809,285.091C223.421,280.415 221.838,275.795 220.096,271.234C219.713,270.245 218.108,270.678 218.491,271.681C224.625,287.681 228.581,304.431 230.252,321.482C230.722,326.275 230.975,331.089 231.105,335.917C231.105,336.137 231.192,336.348 231.349,336.504C231.505,336.66 231.716,336.747 231.936,336.747C232.157,336.747 232.368,336.66 232.524,336.504C232.68,336.348 232.768,336.137 232.768,335.917L232.76,335.888Z" style="fill:rgb(239,232,223);fill-rule:nonzero;"/>
        </g>
        <g transform="matrix(1,0,0,1,1240.12,1363.49)">
            <path d="M208.812,340.861C211.139,322.841 214.045,304.906 217.529,287.055C218.522,281.973 219.558,276.902 220.637,271.84C220.862,270.801 219.257,270.353 219.033,271.4C215.177,289.381 211.915,307.47 209.245,325.668C208.498,330.725 207.8,335.778 207.149,340.825C207.012,341.886 208.682,341.872 208.812,340.825L208.812,340.861Z" style="fill:rgb(239,232,223);fill-rule:nonzero;"/>
        </g>
        <g transform="matrix(1,0,0,1,1240.12,1363.49)">
            <path d="M280.288,214.432C282.905,229.856 277.396,246.189 266.618,257.427C263.532,260.64 260.008,263.405 256.151,265.64L257.402,266.362C257.995,261.964 258.585,257.569 259.173,253.176C259.653,248.892 260.413,244.643 261.45,240.458C262.914,235.06 265.428,230.001 268.85,225.572C272.273,221.144 276.535,217.432 281.394,214.649C281.488,214.594 281.572,214.52 281.638,214.433C281.705,214.347 281.754,214.247 281.782,214.141C281.81,214.035 281.817,213.925 281.803,213.816C281.788,213.708 281.752,213.603 281.697,213.508C281.642,213.413 281.569,213.33 281.482,213.264C281.395,213.197 281.295,213.149 281.189,213.12C281.083,213.092 280.973,213.085 280.864,213.1C280.755,213.115 280.65,213.15 280.555,213.205C274.265,216.832 268.955,221.935 265.086,228.073C263.156,231.126 261.615,234.406 260.496,237.838C259.204,242.142 258.302,246.553 257.8,251.017C257.105,256.137 256.419,261.257 255.74,266.377C255.653,267.026 256.505,267.372 256.99,267.098C271.093,258.935 280.454,243.808 282.29,227.727C282.807,223.16 282.675,218.543 281.9,214.013C281.726,212.967 280.121,213.407 280.295,214.461L280.288,214.432Z" style="fill:rgb(239,232,223);fill-rule:nonzero;"/>
        </g>
        <g transform="matrix(1,0,0,1,1240.12,1363.49)">
            <path d="M257.395,250.296C253.263,253.75 248.44,256.284 243.249,257.73L244.326,258.531C245.692,245.424 250.109,231.162 262.325,224.219C262.42,224.164 262.503,224.091 262.57,224.004C262.636,223.917 262.685,223.818 262.713,223.712C262.741,223.606 262.748,223.495 262.734,223.387C262.72,223.278 262.684,223.173 262.628,223.079C262.573,222.984 262.5,222.901 262.413,222.834C262.326,222.768 262.226,222.719 262.12,222.691C262.014,222.663 261.904,222.656 261.795,222.67C261.686,222.685 261.581,222.72 261.486,222.775C248.757,229.993 244.087,244.81 242.692,258.517C242.693,258.644 242.724,258.77 242.781,258.884C242.838,258.998 242.921,259.098 243.023,259.175C243.125,259.253 243.243,259.306 243.369,259.33C243.494,259.355 243.624,259.351 243.748,259.318C249.21,257.785 254.282,255.105 258.624,251.458C259.448,250.736 258.263,249.596 257.445,250.281L257.395,250.296Z" style="fill:rgb(239,232,223);fill-rule:nonzero;"/>
        </g>
        <g transform="matrix(1,0,0,1,1240.12,1363.49)">
            <path d="M280.274,214.432L262.34,253.176L257.229,264.211C256.781,265.178 258.212,266.023 258.675,265.056L276.616,226.312L281.727,215.27C282.168,214.31 280.736,213.465 280.281,214.432L280.274,214.432Z" style="fill:rgb(239,232,223);fill-rule:nonzero;"/>
        </g>
        <g transform="matrix(1,0,0,1,1240.12,1363.49)">
            <path d="M244.847,257.968C249.083,252.88 253.333,247.77 256.962,242.227C259.853,237.832 262.246,232.671 266.308,229.235C267.125,228.514 265.94,227.366 265.13,228.059C261.154,231.451 258.718,236.446 255.943,240.776C252.328,246.449 247.991,251.646 243.654,256.821C242.974,257.636 244.145,258.82 244.832,257.997L244.847,257.968Z" style="fill:rgb(239,232,223);fill-rule:nonzero;"/>
        </g>
        <g transform="matrix(1,0,0,1,1240.12,1363.49)">
            <path d="M241.796,236.994C223.487,236.953 205.516,241.923 189.837,251.364C189.742,251.42 189.659,251.493 189.593,251.581C189.526,251.668 189.478,251.768 189.45,251.874C189.422,251.98 189.415,252.091 189.43,252.2C189.445,252.309 189.482,252.413 189.537,252.508C189.593,252.603 189.666,252.686 189.754,252.752C189.842,252.819 189.942,252.867 190.048,252.895C190.154,252.923 190.265,252.929 190.374,252.915C190.483,252.9 190.588,252.863 190.683,252.808C202.691,245.57 216.107,240.974 230.035,239.325C233.939,238.873 237.866,238.652 241.796,238.661C242.017,238.661 242.228,238.574 242.384,238.418C242.54,238.262 242.628,238.052 242.628,237.831C242.628,237.611 242.54,237.4 242.384,237.245C242.228,237.089 242.017,237.001 241.796,237.001L241.796,236.994Z" style="fill:rgb(239,232,223);fill-rule:nonzero;"/>
        </g>
        <g transform="matrix(1,0,0,1,1240.12,1363.49)">
            <path d="M189.605,251.819C187.921,260.234 186.186,268.917 181.43,276.221C179.352,279.498 176.6,282.295 173.355,284.428C170.081,286.528 166.409,287.863 162.758,289.162C158.645,290.605 154.496,292.093 150.788,294.445L152.009,295.384L156.505,281.973C157.893,277.823 159.26,273.615 161.616,269.891C165.476,263.785 171.57,259.505 178.083,256.59C181.916,254.912 185.9,253.602 189.981,252.678C191.022,252.432 190.581,250.83 189.533,251.075C182.189,252.807 174.888,255.521 168.773,260.025C165.843,262.144 163.267,264.711 161.139,267.632C158.602,271.162 157.033,275.232 155.645,279.325C153.874,284.521 152.154,289.732 150.405,294.943C150.364,295.102 150.371,295.269 150.424,295.424C150.478,295.579 150.576,295.715 150.706,295.815C150.836,295.914 150.992,295.974 151.156,295.986C151.32,295.998 151.483,295.962 151.626,295.882C158.45,291.551 166.727,290.396 173.623,286.225C180.519,282.053 184.856,274.922 187.451,267.459C189.045,262.497 190.301,257.433 191.21,252.302C191.42,251.256 189.815,250.808 189.605,251.855L189.605,251.819Z" style="fill:rgb(239,232,223);fill-rule:nonzero;"/>
        </g>
        <g transform="matrix(1,0,0,1,1240.12,1363.49)">
            <path d="M189.722,251.653C183.988,248.194 177.168,246.993 170.595,248.283C163.583,249.654 158.032,254.15 152.748,258.675C149.82,261.187 146.849,263.728 145.02,267.214C144.959,267.325 144.923,267.447 144.915,267.574C144.908,267.7 144.929,267.826 144.977,267.943C145.024,268.06 145.098,268.165 145.192,268.25C145.286,268.335 145.398,268.397 145.519,268.434C150.282,269.775 155.201,270.484 160.15,270.541C160.357,270.522 160.551,270.425 160.692,270.271C160.833,270.117 160.91,269.916 160.91,269.707C160.91,269.499 160.833,269.298 160.692,269.144C160.551,268.99 160.357,268.893 160.15,268.874C155.35,268.823 150.578,268.136 145.96,266.831L146.459,268.051C147.977,265.164 150.319,262.999 152.74,260.877C155.257,258.606 157.897,256.476 160.648,254.497C166.019,250.787 172.149,248.867 178.72,249.603C182.33,250.014 185.805,251.214 188.898,253.118C189.808,253.674 190.647,252.237 189.736,251.675L189.722,251.653Z" style="fill:rgb(239,232,223);fill-rule:nonzero;"/>
        </g>
        <g transform="matrix(1,0,0,1,1240.12,1363.49)">
            <path d="M188.253,251.292C181.075,263.988 169.011,272.699 159.26,283.244C156.475,286.214 153.93,289.4 151.648,292.771C151.055,293.659 152.494,294.496 153.094,293.608C161.197,281.483 173.319,273.017 182.68,261.995C185.327,258.93 187.675,255.619 189.692,252.108C189.747,252.013 189.783,251.908 189.797,251.8C189.812,251.691 189.805,251.58 189.777,251.475C189.749,251.369 189.7,251.269 189.633,251.182C189.567,251.095 189.483,251.022 189.388,250.967C189.293,250.912 189.189,250.876 189.08,250.862C188.971,250.848 188.86,250.854 188.755,250.882C188.648,250.911 188.549,250.959 188.462,251.026C188.375,251.092 188.301,251.175 188.246,251.27L188.253,251.292Z" style="fill:rgb(239,232,223);fill-rule:nonzero;"/>
        </g>
        <g transform="matrix(1,0,0,1,1240.12,1363.49)">
            <path d="M147.521,268.491C151.308,268.138 154.959,266.665 158.537,265.446C161.993,264.262 165.44,263.042 168.918,261.931C169.937,261.599 169.503,259.996 168.476,260.328C165.108,261.404 161.768,262.588 158.421,263.728C154.908,264.933 151.243,266.478 147.521,266.831C146.465,266.933 146.458,268.593 147.521,268.491Z" style="fill:rgb(239,232,223);fill-rule:nonzero;"/>
        </g>
        <g transform="matrix(1,0,0,1,1240.12,1363.49)">
            <path d="M230.953,238.048C228.825,232.83 225.15,228.388 220.422,225.316C214.855,221.707 208.509,220.798 201.989,220.74C197.847,220.74 193.705,220.855 189.584,220.343C189.438,220.344 189.295,220.384 189.17,220.457C189.043,220.53 188.939,220.635 188.866,220.761C188.793,220.887 188.754,221.03 188.753,221.176C188.753,221.322 188.79,221.465 188.862,221.592C192.432,227.149 196.227,232.865 201.678,236.748C204.5,238.782 207.77,240.111 211.212,240.624C215.202,241.209 219.229,240.841 223.219,240.451C224.274,240.35 224.282,238.682 223.219,238.791C219.388,239.166 215.484,239.563 211.653,239.022C208.354,238.545 205.221,237.275 202.523,235.319C197.319,231.595 193.705,226.038 190.3,220.74L189.577,221.989C196.401,222.84 203.362,221.765 210.15,222.999C215.593,223.995 220.572,226.709 224.354,230.743C226.477,232.993 228.168,235.613 229.342,238.473C229.739,239.455 231.351,239.029 230.946,238.033L230.953,238.048Z" style="fill:rgb(239,232,223);fill-rule:nonzero;"/>
        </g>
        <g transform="matrix(1,0,0,1,1240.12,1363.49)">
            <path d="M229.66,237.514C216.465,233.642 203.796,228.163 191.941,221.203C191.749,221.091 191.521,221.061 191.307,221.118C191.093,221.175 190.91,221.314 190.799,221.505C190.688,221.697 190.657,221.925 190.714,222.138C190.771,222.352 190.911,222.535 191.103,222.646C203.084,229.675 215.885,235.207 229.219,239.116C229.324,239.145 229.434,239.153 229.543,239.14C229.651,239.126 229.756,239.091 229.851,239.037C229.946,238.983 230.029,238.911 230.096,238.825C230.163,238.739 230.213,238.64 230.242,238.535C230.27,238.43 230.278,238.32 230.265,238.212C230.251,238.103 230.217,237.999 230.163,237.904C230.108,237.809 230.036,237.726 229.95,237.659C229.864,237.592 229.765,237.543 229.66,237.514Z" style="fill:rgb(239,232,223);fill-rule:nonzero;"/>
        </g>
    </g>
</svg>
