<svg width="49" height="48" viewBox="0 0 49 48" fill="none" xmlns="http://www.w3.org/2000/svg">
<g clip-path="url(#clip0_423_18)">
<path d="M30.9844 9.811L37.3334 28.5H42.8334C44.0268 28.5 45.1714 28.9741 46.0153 29.818C46.8593 30.6619 47.3334 31.8065 47.3334 33V36.5C47.3334 37.2956 47.0173 38.0587 46.4547 38.6213C45.8921 39.1839 45.129 39.5 44.3334 39.5H31.3334L4.55936 21.578C3.92802 21.1245 3.50181 20.4396 3.37384 19.6729C3.24586 18.9062 3.42653 18.1199 3.87636 17.486L13.0204 4.686C13.3072 4.2834 13.742 4.01098 14.2294 3.92849C14.7168 3.84601 15.217 3.96019 15.6204 4.246L15.6334 4.255C15.881 4.43561 16.0813 4.67345 16.2171 4.94823C16.353 5.223 16.4203 5.52657 16.4134 5.833C16.3837 7.17852 16.6866 8.51055 17.2952 9.71091C17.9038 10.9113 18.7994 11.9428 19.9024 12.714C20.7809 13.3601 21.7814 13.8214 22.8432 14.0699C23.9051 14.3184 25.0063 14.3491 26.0804 14.16" stroke="#716153" stroke-width="3" stroke-miterlimit="10" stroke-linecap="square"/>
<path d="M3.33337 39.5H17.3334" stroke="#716153" stroke-width="3" stroke-miterlimit="10" stroke-linecap="square"/>
<path d="M3.33337 31.5H8.33337" stroke="#716153" stroke-width="3" stroke-miterlimit="10" stroke-linecap="square"/>
</g>
<defs>
<clipPath id="clip0_423_18">
<rect width="48" height="48" fill="white" transform="translate(0.833374)"/>
</clipPath>
</defs>
</svg>
