<?xml version="1.0" standalone="no"?>
<!DOCTYPE svg PUBLIC "-//W3C//DTD SVG 20010904//EN"
 "http://www.w3.org/TR/2001/REC-SVG-20010904/DTD/svg10.dtd">
<svg version="1.0" xmlns="http://www.w3.org/2000/svg"
 width="700.000000pt" height="700.000000pt" viewBox="0 0 700.000000 700.000000"
 preserveAspectRatio="xMidYMid meet">
<metadata>
Created by potrace 1.14, written by Peter Selinger 2001-2017
</metadata>
<g transform="translate(0.000000,700.000000) scale(0.100000,-0.100000)"
fill="#000000" stroke="none">
<path d="M1475 6993 c-29 -4 -209 -37 -250 -47 -31 -6 -196 -64 -235 -82 -482
-218 -817 -616 -945 -1124 -6 -23 -16 -71 -21 -100 -3 -19 -8 -46 -12 -60 -10
-42 -11 -4039 -1 -4115 23 -180 44 -265 107 -430 51 -136 165 -329 257 -435
174 -201 328 -322 550 -430 158 -78 271 -115 445 -146 19 -4 44 -9 55 -13 11
-3 929 -7 2040 -8 2094 -2 2059 -2 2251 37 140 29 373 124 499 203 226 142
428 348 557 568 90 153 172 367 194 504 3 22 8 43 10 46 1 3 7 34 11 70 10 82
11 4057 0 4124 -14 98 -19 121 -34 185 -94 401 -358 773 -708 998 -169 109
-422 208 -605 237 -25 4 -54 10 -65 13 -22 7 -4051 12 -4100 5z"/>
</g>
</svg>
