<svg xmlns="http://www.w3.org/2000/svg" width="48" height="48" viewBox="0 0 48 48"><g class="nc-icon-wrapper" stroke-linecap="square" stroke-linejoin="miter" stroke-width="3" transform="translate(0.5 0.5)" fill="none" stroke="#716153" stroke-miterlimit="10"><path d="M38,46V42l7.123-8.9A4,4,0,0,0,46,30.6V19a3,3,0,0,0-3-3h0a3,3,0,0,0-3,3v7" data-cap="butt" stroke-linecap="butt"></path><path d="M28,46V35.657a4,4,0,0,1,1.172-2.829L36,26a2.827,2.827,0,0,1,4,0h0a2.827,2.827,0,0,1,0,4h0l-6,6" data-cap="butt" stroke-linecap="butt"></path><path d="M10,46V42L2.877,33.1A4,4,0,0,1,2,30.6V19a3,3,0,0,1,3-3H5a3,3,0,0,1,3,3v7" data-cap="butt" stroke-linecap="butt"></path><path d="M20,46V35.657a4,4,0,0,0-1.172-2.829L12,26a2.827,2.827,0,0,0-4,0H8a2.827,2.827,0,0,0,0,4H8l6,6" data-cap="butt" stroke-linecap="butt"></path><path d="M34,8.5A5.5,5.5,0,0,0,24,5.344,5.5,5.5,0,1,0,15.73,12.5L24,21l8.27-8.5A5.476,5.476,0,0,0,34,8.5Z" stroke="#716153"></path></g></svg>