<svg width="142" height="110" viewBox="0 0 142 110" fill="none" xmlns="http://www.w3.org/2000/svg">
<g clip-path="url(#clip0_222_29)">
<path d="M70.3261 10.8158H50.3197C48.8902 10.8158 48.3246 10.8383 47.57 9.63965H46.3452C46.2029 12.3852 45.8924 15.6937 45.5801 18.874H47.1657C47.8215 16.9842 48.2795 15.666 48.9006 14.6682C49.7767 13.2132 50.5834 12.8841 53.3661 12.8841H57.6842V37.2509C57.6842 41.2731 57.2713 41.7408 52.6531 42.0509V43.5423H67.6995V42.0509C62.9634 41.7408 62.5418 41.2315 62.5418 37.2509V12.8841H67.2571C70.0676 12.8841 70.5534 13.2444 71.3792 14.5504C71.6198 14.9496 71.8319 15.3652 72.0141 15.7942V10.5092C71.6012 10.7396 71.1137 10.8158 70.3261 10.8158Z" fill="#716153"/>
<path d="M83.8388 56.9738C86.7446 56.2809 90.6359 54.0498 90.6359 49.4162C90.6359 46.8664 89.4215 44.9956 87.6433 43.7866C85.957 42.652 83.5768 42.0249 79.7861 42.0249H71.3408V74.7514H78.8007C82.43 74.7514 85.1555 74.2127 87.7699 72.7611C90.7192 71.1501 92.6518 68.3942 92.6518 64.98C92.6588 60.1593 88.7605 57.807 83.8388 56.9738ZM75.4663 46.8439C75.4663 45.3317 75.6086 44.7514 76.0024 44.4309C76.4708 44.0966 77.3781 43.9113 78.7539 43.9113C83.2229 43.9113 85.5198 46.4403 85.5198 50.1177C85.5198 54.1746 83.3408 56.3623 77.9298 56.3623H75.4663V46.8439ZM79.8121 72.8771C76.3875 72.8771 75.4663 71.9418 75.4663 68.318V58.2019H77.7685C83.8301 58.2019 87.2512 60.4365 87.2512 65.491C87.253 70.698 83.5577 72.8668 79.8139 72.8771H79.8121Z" fill="#716153"/>
<path d="M71.5334 0H70.9331V10.5093V15.7942V42.0249V44.7861V72.0301V74.7532V84.7254H71.5334H72.1319V74.7532V42.0249V18.8533V9.6397V0H71.5334Z" fill="#716153"/>
<path d="M71.9463 35.3369C75.2353 34.6636 78.3789 33.4139 81.2312 31.6456C84.0673 29.9015 86.5626 27.6577 88.5957 25.0234C89.7448 23.5247 90.7142 21.8969 91.4842 20.1732C91.5866 19.9394 91.2431 19.7367 91.1373 19.9705C89.7836 22.9743 87.8445 25.6788 85.4331 27.9265C83.0082 30.1989 80.1987 32.0234 77.1352 33.3154C75.4289 34.0363 73.6545 34.5847 71.8387 34.9523C71.5871 35.0026 71.693 35.3871 71.9445 35.3369H71.9463Z" fill="#716153"/>
<path d="M91.3385 19.9446C89.4042 18.9313 88.3424 16.7937 87.7179 14.7948C87.0359 12.5908 86.8714 10.2596 87.2373 7.98201C87.4422 6.70536 87.815 5.46129 88.3459 4.28202L88.0319 4.3236C89.4585 6.05189 90.5095 8.05751 91.1182 10.2131C91.1252 10.2383 91.137 10.262 91.1531 10.2826C91.1692 10.3033 91.1892 10.3206 91.212 10.3336C91.2348 10.3465 91.2599 10.3549 91.286 10.3581C91.312 10.3614 91.3384 10.3595 91.3637 10.3525C91.389 10.3456 91.4126 10.3337 91.4334 10.3177C91.4541 10.3016 91.4714 10.2816 91.4844 10.2589C91.4973 10.2361 91.5057 10.211 91.5089 10.185C91.5122 10.159 91.5103 10.1327 91.5033 10.1074C90.8725 7.8878 89.7867 5.82327 88.3147 4.04471C88.293 4.02333 88.2667 4.00716 88.2378 3.99741C88.2089 3.98766 88.1782 3.98458 88.148 3.98842C88.1177 3.99226 88.0888 4.0029 88.0632 4.01956C88.0377 4.03621 88.0163 4.05844 88.0007 4.08455C87.0113 6.27892 86.5542 8.67533 86.6666 11.0792C86.7741 13.3813 87.3761 15.7405 88.5749 17.7274C89.2047 18.7771 90.0461 19.7177 91.1442 20.2928C91.3715 20.4123 91.5727 20.0676 91.3455 19.9463L91.3385 19.9446Z" fill="#716153"/>
<path d="M91.4566 19.8874C90.5429 15.4674 90.9298 10.8778 92.5704 6.67244C93.0365 5.47752 93.6036 4.32434 94.2654 3.22536L93.8993 3.17686C95.2525 7.76546 95.9499 12.9603 93.5159 17.3272C92.9254 18.3984 92.1475 19.3553 91.219 20.1524C91.0229 20.3257 91.3057 20.5993 91.5017 20.4331C93.2071 18.9815 94.3556 16.9686 94.9715 14.838C95.6654 12.4615 95.6654 9.95496 95.3028 7.52122C95.0678 6.01596 94.7275 4.52899 94.2845 3.07119C94.2732 3.03408 94.2515 3.001 94.2219 2.97595C94.1922 2.95089 94.156 2.93493 94.1175 2.92999C94.079 2.92504 94.0398 2.93133 94.0048 2.94808C93.9698 2.96484 93.9404 2.99135 93.9201 3.02442C91.5577 6.98893 90.401 11.5539 90.5909 16.1632C90.6479 17.4511 90.8116 18.7321 91.0802 19.9931C91.1322 20.2442 91.5174 20.1386 91.4653 19.8874H91.4566Z" fill="#716153"/>
<path d="M88.084 4.50377C88.1725 8.63432 88.8143 12.7345 89.9923 16.695C90.3266 17.8175 90.7042 18.9261 91.1252 20.0208C91.2171 20.2581 91.6023 20.1542 91.5103 19.9152C90.0374 16.077 89.0875 12.0588 88.686 7.96817C88.5703 6.81337 88.5027 5.65857 88.483 4.50377C88.483 4.45094 88.462 4.40027 88.4246 4.36291C88.3872 4.32555 88.3364 4.30457 88.2835 4.30457C88.2306 4.30457 88.1798 4.32555 88.1424 4.36291C88.105 4.40027 88.084 4.45094 88.084 4.50377Z" fill="#716153"/>
<path d="M93.8245 3.30854C93.2671 7.63442 92.5702 11.9395 91.734 16.2238C91.4958 17.4421 91.2471 18.6587 90.988 19.8736C90.9343 20.123 91.3194 20.2304 91.3732 19.9792C92.2984 15.6649 93.0814 11.3234 93.7222 6.95482C93.9003 5.74113 94.068 4.52859 94.2253 3.3172C94.2583 3.0643 93.8575 3.06603 93.8245 3.3172V3.30854Z" fill="#716153"/>
<path d="M76.6702 33.6532C76.0439 29.9497 77.3641 26.0315 79.9525 23.3327C80.6935 22.5616 81.5391 21.8981 82.4646 21.3615L82.1627 21.1882C82.0216 22.2426 81.8805 23.2975 81.7394 24.353C81.623 25.3811 81.4399 26.4007 81.1912 27.4051C80.4821 30.0236 78.7604 32.2536 76.4047 33.6047C76.3615 33.6329 76.3308 33.6766 76.319 33.7268C76.3072 33.777 76.3151 33.8298 76.3412 33.8743C76.3673 33.9188 76.4095 33.9515 76.4591 33.9659C76.5087 33.9802 76.5619 33.9749 76.6077 33.9511C78.1193 33.0812 79.395 31.8557 80.3238 30.381C80.7868 29.6484 81.1569 28.8612 81.4254 28.0374C81.734 27.0042 81.95 25.9457 82.0708 24.8744C82.2385 23.6457 82.4039 22.417 82.5669 21.1882C82.5878 21.0323 82.383 20.9492 82.2651 21.015C78.8821 22.9741 76.6355 26.6048 76.1931 30.4642C76.0685 31.5601 76.0994 32.6681 76.285 33.7554C76.3284 34.0065 76.7135 33.9009 76.6702 33.6497V33.6532Z" fill="#716153"/>
<path d="M82.1645 25.0442C83.1566 24.2156 84.3139 23.6073 85.5597 23.26L85.3081 23.0677C84.9802 26.2152 83.9115 29.638 80.9866 31.3026C80.9434 31.3309 80.9127 31.3746 80.9009 31.4248C80.889 31.4749 80.897 31.5277 80.923 31.5722C80.9491 31.6167 80.9913 31.6495 81.0409 31.6638C81.0905 31.6781 81.1437 31.6728 81.1895 31.6491C84.2429 29.9169 85.3653 26.3589 85.7002 23.0695C85.6999 23.0388 85.6926 23.0086 85.6788 22.9812C85.6651 22.9538 85.6452 22.9299 85.6207 22.9113C85.5963 22.8928 85.5679 22.8801 85.5378 22.8741C85.5076 22.8682 85.4766 22.8693 85.4469 22.8772C84.1384 23.2485 82.9242 23.8939 81.8852 24.7705C81.6892 24.9437 81.972 25.2174 82.168 25.0528L82.1645 25.0442Z" fill="#716153"/>
<path d="M76.681 33.6515L80.9851 24.3548L82.2117 21.7045C82.3193 21.4724 81.974 21.2697 81.8647 21.5036L77.5605 30.8003L76.334 33.4505C76.2264 33.6809 76.5717 33.8836 76.681 33.6515Z" fill="#716153"/>
<path d="M85.1814 23.2115C84.1648 24.4344 83.1447 25.6591 82.2738 26.9894C81.5798 28.0443 81.0056 29.2828 80.0306 30.1074C79.8346 30.2806 80.1174 30.556 80.3117 30.3897C81.2676 29.5756 81.8522 28.3769 82.5184 27.3376C83.3858 25.9761 84.4267 24.7289 85.4677 23.4869C85.6307 23.2912 85.3497 23.0071 85.1866 23.2045L85.1814 23.2115Z" fill="#716153"/>
<path d="M85.9102 28.2349C89.318 28.2406 92.6882 27.525 95.7989 26.1355C96.6863 25.7389 97.5484 25.2883 98.3804 24.7861C98.4031 24.7729 98.4231 24.7553 98.4391 24.7344C98.4551 24.7135 98.4668 24.6897 98.4736 24.6643C98.4803 24.6389 98.482 24.6124 98.4785 24.5863C98.475 24.5602 98.4664 24.5351 98.4532 24.5124C98.44 24.4896 98.4224 24.4697 98.4015 24.4537C98.3806 24.4378 98.3567 24.4261 98.3313 24.4193C98.3058 24.4126 98.2793 24.4109 98.2532 24.4144C98.2271 24.4178 98.2019 24.4264 98.1791 24.4396C95.2971 26.1764 92.0773 27.2796 88.7345 27.6754C87.7976 27.7839 86.8551 27.8371 85.9119 27.8347C85.859 27.8347 85.8083 27.8557 85.7708 27.8931C85.7334 27.9304 85.7124 27.9811 85.7124 28.0339C85.7124 28.0868 85.7334 28.1374 85.7708 28.1748C85.8083 28.2122 85.859 28.2331 85.9119 28.2331L85.9102 28.2349Z" fill="#716153"/>
<path d="M98.4361 24.6787C98.8385 22.6589 99.2566 20.5768 100.398 18.8221C100.897 18.0361 101.557 17.3648 102.334 16.8526C103.122 16.3485 104.003 16.0281 104.878 15.7163C105.865 15.3698 106.862 15.013 107.752 14.4483L107.459 14.2231L106.38 17.4415C106.047 18.4375 105.719 19.4474 105.153 20.3412C104.227 21.8067 102.765 22.8339 101.201 23.5337C100.281 23.9362 99.3253 24.2506 98.3458 24.4725C98.096 24.5314 98.2018 24.916 98.4517 24.8571C100.214 24.4431 101.968 23.79 103.436 22.7109C104.139 22.2012 104.757 21.5846 105.268 20.8834C105.877 20.0364 106.253 19.0594 106.586 18.0772C107.011 16.8301 107.424 15.5794 107.844 14.3288C107.853 14.2906 107.851 14.2506 107.838 14.2136C107.825 14.1765 107.801 14.1441 107.77 14.1203C107.739 14.0964 107.701 14.0822 107.662 14.0792C107.623 14.0762 107.584 14.0847 107.549 14.1036C105.913 15.1429 103.927 15.4201 102.27 16.423C100.613 17.4259 99.5741 19.1339 98.953 20.9267C98.5694 22.1172 98.268 23.3326 98.0509 24.5643C98.0006 24.8155 98.3857 24.9229 98.4361 24.6717V24.6787Z" fill="#716153"/>
<path d="M98.4081 24.7185C99.783 25.552 101.42 25.8429 102.999 25.5343C104.68 25.2052 106.014 24.1261 107.282 23.04C107.985 22.4372 108.696 21.8274 109.136 20.9908C109.151 20.9643 109.16 20.9347 109.162 20.9044C109.163 20.8742 109.158 20.8438 109.147 20.8157C109.135 20.7876 109.118 20.7625 109.095 20.7421C109.073 20.7217 109.046 20.7067 109.017 20.698C107.873 20.3765 106.692 20.207 105.504 20.194C105.451 20.194 105.4 20.215 105.363 20.2523C105.325 20.2897 105.304 20.3403 105.304 20.3932C105.304 20.446 105.325 20.4967 105.363 20.534C105.4 20.5714 105.451 20.5924 105.504 20.5924C106.656 20.6061 107.802 20.7709 108.911 21.0826L108.791 20.7898C108.427 21.4827 107.865 22.0024 107.284 22.5117C106.68 23.0571 106.047 23.5684 105.386 24.0429C104.097 24.9333 102.624 25.394 101.049 25.2174C100.182 25.119 99.348 24.8309 98.6059 24.3738C98.5599 24.3471 98.5051 24.3398 98.4537 24.3535C98.4023 24.3671 98.3584 24.4006 98.3318 24.4465C98.3051 24.4925 98.2978 24.5471 98.3114 24.5984C98.3251 24.6498 98.3586 24.6936 98.4046 24.7202L98.4081 24.7185Z" fill="#716153"/>
<path d="M98.7588 24.8051C100.483 21.7581 103.379 19.6674 105.719 17.1366C106.387 16.424 106.998 15.6595 107.544 14.8501C107.688 14.6371 107.343 14.4361 107.197 14.6492C105.259 17.5558 102.34 19.5929 100.095 22.231C99.4594 22.9668 98.8959 23.7614 98.4118 24.6041C98.3852 24.6501 98.3778 24.7047 98.3915 24.7561C98.4052 24.8074 98.4387 24.8512 98.4847 24.8778C98.5307 24.9045 98.5854 24.9118 98.6368 24.8981C98.6883 24.8845 98.7321 24.851 98.7588 24.8051Z" fill="#716153"/>
<path d="M108.534 20.679C107.627 20.7639 106.749 21.1173 105.892 21.41C105.063 21.6941 104.235 21.9868 103.399 22.2553C103.156 22.3333 103.26 22.7178 103.507 22.6399C104.315 22.3801 105.117 22.096 105.92 21.8223C106.763 21.533 107.643 21.1623 108.534 21.0774C108.789 21.0549 108.791 20.6548 108.534 20.679Z" fill="#716153"/>
<path d="M88.5106 27.9838C89.0224 29.2362 89.9049 30.3028 91.0401 31.0411C92.3742 31.9072 93.8974 32.1237 95.4639 32.1376C96.458 32.1462 97.4521 32.1099 98.441 32.2328C98.4762 32.2331 98.5108 32.224 98.5414 32.2065C98.5719 32.189 98.5973 32.1638 98.6149 32.1333C98.6325 32.1029 98.6418 32.0683 98.6417 32.0332C98.6416 31.998 98.6322 31.9635 98.6144 31.9332C97.7574 30.5994 96.8484 29.2275 95.5385 28.2956C94.8609 27.8085 94.0762 27.4907 93.2503 27.3688C92.2926 27.2285 91.3263 27.3169 90.3687 27.4104C90.1154 27.4346 90.1119 27.8348 90.3687 27.8088C91.2864 27.7187 92.2232 27.6252 93.1444 27.7534C93.9372 27.8672 94.69 28.1729 95.3373 28.6437C96.5864 29.5358 97.4538 30.8696 98.2709 32.141L98.4444 31.8414C96.8067 31.6387 95.1361 31.8951 93.507 31.5989C92.2007 31.3607 91.0057 30.7097 90.098 29.7419C89.5883 29.2012 89.182 28.5718 88.8992 27.885C88.8038 27.6494 88.4187 27.7534 88.5141 27.9907L88.5106 27.9838Z" fill="#716153"/>
<path d="M88.825 28.1119C91.9919 29.0413 95.0322 30.3561 97.8775 32.0267C97.9003 32.0399 97.9255 32.0485 97.9516 32.052C97.9777 32.0554 98.0042 32.0538 98.0297 32.047C98.0551 32.0402 98.079 32.0285 98.0999 32.0126C98.1208 31.9966 98.1384 31.9767 98.1516 31.9539C98.1648 31.9312 98.1734 31.9061 98.1769 31.88C98.1804 31.8539 98.1787 31.8274 98.172 31.802C98.1652 31.7766 98.1535 31.7528 98.1375 31.7319C98.1215 31.711 98.1015 31.6934 98.0788 31.6802C95.2032 29.9929 92.1309 28.6647 88.9308 27.7256C88.8798 27.7116 88.8252 27.7184 88.7792 27.7446C88.7331 27.7707 88.6994 27.8141 88.6854 27.8651C88.6713 27.9161 88.6782 27.9705 88.7043 28.0165C88.7305 28.0625 88.7739 28.0962 88.825 28.1102V28.1119Z" fill="#716153"/>
<path d="M71.9966 49.7748C68.7076 50.4481 65.564 51.6978 62.7116 53.4661C59.8733 55.2092 57.3761 57.4531 55.342 60.0883C54.1926 61.5868 53.2232 63.2147 52.4534 64.9385C52.3493 65.1706 52.6946 65.3733 52.8004 65.1394C54.1541 62.1357 56.0932 59.4311 58.5046 57.1834C62.2956 53.6278 67.0025 51.1952 72.099 50.1576C72.3505 50.1074 72.243 49.7228 71.9931 49.7731L71.9966 49.7748Z" fill="#716153"/>
<path d="M52.6026 65.1707C54.5353 66.184 55.5987 68.3215 56.2215 70.3205C56.9053 72.5241 57.0697 74.8557 56.7021 77.1333C56.4972 78.4099 56.1245 79.654 55.5935 80.8332L55.9075 80.7934C54.4821 79.0643 53.4312 77.059 52.8212 74.9039C52.8142 74.8787 52.8022 74.855 52.786 74.8344C52.7698 74.8138 52.7497 74.7965 52.7268 74.7837C52.7039 74.7708 52.6787 74.7626 52.6527 74.7594C52.6266 74.7563 52.6002 74.7583 52.5749 74.7653C52.5496 74.7724 52.5259 74.7843 52.5053 74.8005C52.4846 74.8167 52.4673 74.8368 52.4545 74.8596C52.4416 74.8825 52.4333 74.9076 52.4302 74.9336C52.427 74.9597 52.429 74.9861 52.4361 75.0113C53.0671 77.2309 54.1529 79.2954 55.6248 81.074C55.6465 81.0954 55.6727 81.1116 55.7016 81.1213C55.7305 81.1311 55.7612 81.1341 55.7915 81.1303C55.8217 81.1265 55.8507 81.1158 55.8762 81.0992C55.9017 81.0825 55.9231 81.0603 55.9388 81.0342C56.9287 78.8399 57.3863 76.4435 57.2746 74.0395C57.167 71.7392 56.565 69.3782 55.3663 67.3913C54.7348 66.3416 53.8934 65.401 52.7969 64.826C52.5697 64.7064 52.3667 65.0511 52.5957 65.1724L52.6026 65.1707Z" fill="#716153"/>
<path d="M52.4848 65.2278C53.3965 69.6479 53.0097 74.2369 51.3711 78.4427C50.9042 79.6373 50.3372 80.7905 49.6761 81.8898L50.0404 81.9383C48.6872 77.3497 47.9898 72.1548 50.4238 67.788C51.0144 66.7148 51.793 65.7562 52.7225 64.9575C52.9186 64.7843 52.634 64.5089 52.4397 64.6752C50.7326 66.1268 49.5859 68.1396 48.97 70.2702C48.2847 72.6485 48.2761 75.1533 48.6387 77.587C48.8729 79.0924 49.2132 80.5795 49.657 82.0371C49.668 82.0743 49.6896 82.1075 49.7191 82.1328C49.7487 82.158 49.7849 82.1742 49.8234 82.1793C49.862 82.1844 49.9012 82.1783 49.9363 82.1617C49.9714 82.145 50.0009 82.1186 50.0213 82.0856C52.3838 78.1204 53.5404 73.5549 53.3505 68.9451C53.2956 67.6626 53.1348 66.3869 52.87 65.1308C52.8162 64.8796 52.4311 64.9853 52.4848 65.2364V65.2278Z" fill="#716153"/>
<path d="M55.8625 80.6132C55.774 76.4826 55.1321 72.3825 53.9542 68.4219C53.6211 67.2995 53.2411 66.1909 52.823 65.0961C52.7311 64.8588 52.346 64.9627 52.4379 65.2035C53.9101 69.0435 54.8595 73.0635 55.2605 77.1557C55.3733 78.3059 55.434 79.4613 55.4652 80.6201C55.4652 80.6729 55.4862 80.7236 55.5237 80.761C55.5611 80.7983 55.6118 80.8193 55.6647 80.8193C55.7177 80.8193 55.7684 80.7983 55.8058 80.761C55.8432 80.7236 55.8643 80.6729 55.8643 80.6201L55.8625 80.6132Z" fill="#716153"/>
<path d="M50.1148 81.8067C50.6734 77.4819 51.3708 73.1774 52.207 68.8931C52.4453 67.6736 52.694 66.4565 52.953 65.2416C53.0068 64.9922 52.6217 64.8848 52.5679 65.1359C51.6426 69.4514 50.8596 73.7929 50.2189 78.1604C50.0396 79.3741 49.8719 80.5866 49.7158 81.798C49.6828 82.0526 50.0836 82.0492 50.1148 81.798V81.8067Z" fill="#716153"/>
<path d="M67.269 51.4637C67.8971 55.1654 66.5751 59.0854 63.9884 61.7824C63.2476 62.5537 62.402 63.2173 61.4763 63.7537L61.7765 63.9269C61.9187 62.8714 62.0604 61.8165 62.2015 60.7622C62.3166 59.734 62.4992 58.7144 62.748 57.71C63.0993 56.4143 63.7028 55.2003 64.5241 54.1374C65.3454 53.0746 66.3683 52.1837 67.5345 51.5157C67.5572 51.5025 67.5772 51.4849 67.5932 51.464C67.6092 51.4432 67.6209 51.4193 67.6277 51.3939C67.6344 51.3685 67.6361 51.342 67.6326 51.3159C67.6291 51.2899 67.6205 51.2647 67.6073 51.242C67.5941 51.2192 67.5765 51.1993 67.5556 51.1834C67.5347 51.1674 67.5108 51.1557 67.4854 51.1489C67.4599 51.1422 67.4334 51.1405 67.4073 51.144C67.3812 51.1475 67.356 51.156 67.3332 51.1692C65.8235 52.0396 64.5492 53.2644 63.6206 54.7376C63.1575 55.4702 62.7875 56.2574 62.519 57.0812C62.209 58.1141 61.9925 59.1727 61.8719 60.2442C61.7053 61.473 61.5405 62.7017 61.3775 63.9304C61.3566 64.0863 61.5613 64.1694 61.6776 64.1036C65.0623 62.1445 67.3089 58.5138 67.7496 54.6544C67.8736 53.5584 67.8421 52.4504 67.6559 51.3632C67.6143 51.1121 67.2291 51.2177 67.2708 51.4706L67.269 51.4637Z" fill="#716153"/>
<path d="M61.7748 60.071C60.783 60.9 59.6256 61.5082 58.3797 61.8552L58.6382 62.0474C58.9661 58.9018 60.0261 55.4789 62.958 53.8126C62.9808 53.7994 63.0007 53.7818 63.0167 53.7609C63.0327 53.74 63.0444 53.7162 63.0512 53.6908C63.0579 53.6654 63.0596 53.6389 63.0561 53.6128C63.0527 53.5867 63.0441 53.5616 63.0308 53.5389C63.0176 53.5161 63.0001 53.4962 62.9791 53.4802C62.9582 53.4643 62.9343 53.4526 62.9089 53.4458C62.8834 53.4391 62.8569 53.4374 62.8308 53.4409C62.8047 53.4443 62.7795 53.4529 62.7567 53.4661C59.7016 55.1983 58.5809 58.7545 58.2461 62.044C58.2464 62.0746 58.2537 62.1048 58.2674 62.1322C58.2812 62.1596 58.3011 62.1835 58.3255 62.2021C58.35 62.2207 58.3784 62.2334 58.4085 62.2393C58.4386 62.2452 58.4697 62.2442 58.4994 62.2363C59.8104 61.8684 61.0277 61.2252 62.0697 60.3499C62.2675 60.1767 61.983 59.903 61.7869 60.0675L61.7748 60.071Z" fill="#716153"/>
<path d="M67.2657 51.4637L62.9615 60.7622L61.7349 63.4107C61.6274 63.6428 61.9709 63.8455 62.0819 63.6134L66.3878 54.3149L67.6144 51.6647C67.7202 51.4343 67.3767 51.2316 67.2674 51.4637H67.2657Z" fill="#716153"/>
<path d="M58.7632 61.9124C59.7798 60.6912 60.7999 59.4648 61.6708 58.1345C62.3647 57.0796 62.939 55.841 63.914 55.0165C64.11 54.8433 63.8255 54.5679 63.6312 54.7342C62.677 55.5483 62.0924 56.747 61.4262 57.7863C60.5587 59.1478 59.5178 60.395 58.4769 61.637C58.3138 61.8327 58.5949 62.1168 58.7597 61.9193L58.7632 61.9124Z" fill="#716153"/>
<path d="M58.0311 56.8786C53.6368 56.8687 49.3239 58.0615 45.5609 60.3274C45.5381 60.3407 45.5182 60.3584 45.5023 60.3794C45.4863 60.4004 45.4747 60.4243 45.468 60.4498C45.4613 60.4753 45.4597 60.5019 45.4633 60.528C45.4669 60.5541 45.4756 60.5792 45.4889 60.602C45.5023 60.6247 45.5199 60.6446 45.541 60.6605C45.562 60.6765 45.586 60.6881 45.6115 60.6948C45.637 60.7015 45.6636 60.703 45.6898 60.6995C45.7159 60.6959 45.7411 60.6872 45.7639 60.6739C48.6458 58.9368 51.8656 57.8337 55.2085 57.4381C56.1454 57.3296 57.0879 57.2764 58.0311 57.2787C58.084 57.2787 58.1348 57.2578 58.1722 57.2204C58.2096 57.183 58.2306 57.1324 58.2306 57.0795C58.2306 57.0267 58.2096 56.976 58.1722 56.9387C58.1348 56.9013 58.084 56.8803 58.0311 56.8803V56.8786Z" fill="#716153"/>
<path d="M45.5052 60.4365C45.101 62.4562 44.6847 64.5401 43.5431 66.2931C43.0445 67.0795 42.3839 67.7508 41.6053 68.2626C40.8194 68.7666 39.9381 69.0871 39.062 69.3989C38.0748 69.7453 37.079 70.1022 36.1891 70.6669L36.4822 70.8921L37.5613 67.6736C37.8944 66.6776 38.2223 65.6677 38.7879 64.7739C39.7143 63.3085 41.1768 62.2813 42.7399 61.5815C43.6598 61.179 44.616 60.8646 45.5955 60.6426C45.8453 60.5837 45.7395 60.1992 45.4879 60.2581C43.7253 60.6738 41.9731 61.3251 40.5054 62.406C39.8023 62.9146 39.184 63.5307 38.6734 64.2317C38.0644 65.0788 37.688 66.0557 37.3549 67.0379C36.9298 68.2851 36.5169 69.5357 36.0971 70.7864C36.0873 70.8245 36.089 70.8646 36.1018 70.9017C36.1147 70.9389 36.1382 70.9715 36.1694 70.9955C36.2006 71.0194 36.2381 71.0337 36.2774 71.0366C36.3167 71.0395 36.3559 71.0308 36.3903 71.0116C38.028 69.9723 40.0144 69.6951 41.6695 68.6939C43.3245 67.6927 44.3654 65.9813 44.9883 64.1902C45.3708 62.9993 45.6722 61.784 45.8904 60.5525C45.9407 60.3014 45.5556 60.194 45.5052 60.4451V60.4365Z" fill="#716153"/>
<path d="M45.5332 60.3967C44.157 59.5666 42.5204 59.2782 40.9428 59.5878C39.26 59.9169 37.9276 60.996 36.6594 62.0821C35.9568 62.6849 35.2438 63.2947 34.8049 64.1313C34.7901 64.1579 34.7815 64.1874 34.7797 64.2177C34.7778 64.248 34.7829 64.2783 34.7944 64.3064C34.8058 64.3345 34.8235 64.3596 34.846 64.38C34.8686 64.4004 34.8954 64.4154 34.9246 64.4241C36.0676 64.7461 37.2483 64.9162 38.4359 64.9299C38.4858 64.9252 38.5322 64.9021 38.566 64.8651C38.5998 64.8281 38.6185 64.7799 38.6185 64.7298C38.6185 64.6797 38.5998 64.6315 38.566 64.5945C38.5322 64.5575 38.4858 64.5344 38.4359 64.5297C37.284 64.5176 36.1388 64.3527 35.0304 64.0395L35.1501 64.3323C35.5144 63.6394 36.0765 63.1197 36.6577 62.6105C37.2616 62.0655 37.8952 61.5543 38.5556 61.0792C39.8446 60.1888 41.3158 59.7281 42.8928 59.9048C43.7592 60.0034 44.5932 60.2914 45.3355 60.7483C45.554 60.8817 45.7553 60.537 45.5367 60.4019L45.5332 60.3967Z" fill="#716153"/>
<path d="M45.1808 60.3101C43.4581 63.357 40.5626 65.4478 38.2223 67.9785C37.554 68.6914 36.9431 69.456 36.3955 70.265C36.2533 70.4781 36.5985 70.679 36.7425 70.466C38.6873 67.5559 41.5966 65.524 43.8433 62.8789C44.4786 62.1431 45.0421 61.3485 45.5261 60.5058C45.5393 60.483 45.5479 60.4579 45.5514 60.4319C45.5549 60.4058 45.5532 60.3793 45.5464 60.3539C45.5397 60.3285 45.5279 60.3046 45.5119 60.2837C45.496 60.2628 45.476 60.2453 45.4532 60.2321C45.4304 60.2189 45.4053 60.2103 45.3792 60.2068C45.3531 60.2034 45.3265 60.205 45.3011 60.2118C45.2756 60.2186 45.2517 60.2302 45.2308 60.2462C45.2099 60.2622 45.1923 60.2821 45.1791 60.3049L45.1808 60.3101Z" fill="#716153"/>
<path d="M35.405 64.4379C36.314 64.3531 37.1901 63.9997 38.0489 63.707C38.8782 63.4229 39.7057 63.1301 40.5402 62.8634C40.7848 62.7837 40.6807 62.3991 40.4343 62.4788C39.6259 62.7369 38.8244 63.021 38.0211 63.2947C37.178 63.584 36.2984 63.9547 35.405 64.0395C35.1517 64.0638 35.1499 64.4622 35.405 64.4379Z" fill="#716153"/>
<path d="M55.4288 57.1314C54.9181 55.8793 54.0361 54.8131 52.9012 54.0758C51.5653 53.2097 50.0421 52.9915 48.4773 52.9776C47.4832 52.9776 46.4891 53.0053 45.5002 52.8823C45.4652 52.8826 45.4309 52.8921 45.4007 52.9097C45.3704 52.9273 45.3453 52.9524 45.3278 52.9827C45.3103 53.013 45.301 53.0473 45.3008 53.0822C45.3006 53.1172 45.3096 53.1516 45.3268 53.182C46.1838 54.5158 47.0946 55.8877 48.4027 56.8196C49.0801 57.3077 49.8647 57.6266 50.6909 57.7498C51.6486 57.8901 52.6149 57.8018 53.5725 57.7082C53.8258 57.684 53.8276 57.2838 53.5725 57.3098C52.6531 57.3999 51.7162 57.4952 50.7968 57.3653C50.005 57.2509 49.253 56.946 48.6056 56.4766C47.3565 55.5828 46.4891 54.249 45.672 52.9776L45.4985 53.2773C47.1362 53.4817 48.8069 53.2236 50.4359 53.5198C51.7423 53.7587 52.9374 54.4102 53.8449 55.3784C54.3544 55.9183 54.7602 56.5472 55.042 57.2336C55.1374 57.4692 55.5243 57.367 55.4271 57.1279L55.4288 57.1314Z" fill="#716153"/>
<path d="M55.1183 57.0033C51.9515 56.074 48.9111 54.7592 46.0658 53.0886C46.0198 53.0619 45.9651 53.0546 45.9137 53.0682C45.8623 53.0819 45.8184 53.1154 45.7917 53.1613C45.765 53.2072 45.7577 53.2619 45.7714 53.3132C45.785 53.3645 45.8186 53.4083 45.8646 53.435C48.7401 55.1221 51.8124 56.4497 55.0125 57.3879C55.0378 57.3948 55.0642 57.3967 55.0902 57.3935C55.1162 57.3902 55.1414 57.3819 55.1642 57.3689C55.187 57.356 55.207 57.3387 55.2231 57.318C55.2392 57.2973 55.251 57.2737 55.258 57.2484C55.2649 57.2232 55.2668 57.1968 55.2636 57.1708C55.2603 57.1448 55.252 57.1198 55.239 57.097C55.226 57.0742 55.2087 57.0543 55.188 57.0382C55.1673 57.0221 55.1436 57.0103 55.1183 57.0033Z" fill="#716153"/>
<path d="M5.96445 109.811H4.36317V97.4762H0V96.0558H10.3276V97.4762H5.96445V109.811Z" fill="#716153"/>
<path d="M26.2882 102.915C26.2882 105.118 25.7307 106.85 24.6158 108.112C23.5008 109.374 21.9504 110.002 19.9646 109.995C17.9348 109.995 16.3688 109.377 15.2666 108.141C14.1644 106.906 13.6133 105.156 13.6133 102.893C13.6133 100.654 14.1661 98.918 15.2718 97.6858C16.3775 96.4536 17.9481 95.837 19.9837 95.8358C21.9637 95.8358 23.5089 96.4634 24.6192 97.7187C25.7295 98.974 26.2859 100.706 26.2882 102.915ZM15.31 102.915C15.31 104.778 15.7073 106.191 16.5018 107.154C17.2964 108.117 18.453 108.598 19.9715 108.597C21.4982 108.597 22.6507 108.117 23.4291 107.157C24.2075 106.198 24.5973 104.784 24.5984 102.915C24.5984 101.068 24.2104 99.664 23.4343 98.7043C22.6583 97.7447 21.5104 97.2666 19.9906 97.2701C18.4639 97.2701 17.3033 97.7516 16.5088 98.7147C15.7142 99.6778 15.3146 101.078 15.31 102.915Z" fill="#716153"/>
<path d="M31.29 109.811V96.0558H32.8913V108.363H38.9633V109.811H31.29Z" fill="#716153"/>
<path d="M49.2941 102.605H53.9782V109.302C53.2513 109.532 52.5078 109.706 51.7541 109.822C50.8873 109.947 50.0121 110.005 49.1362 109.995C47.0544 109.995 45.4306 109.375 44.2648 108.136C43.0989 106.897 42.5206 105.161 42.5299 102.929C42.5299 101.498 42.819 100.245 43.3973 99.1703C43.9522 98.114 44.8189 97.2535 45.8799 96.7054C46.9613 96.1372 48.2272 95.8531 49.6775 95.8531C51.0877 95.8417 52.4854 96.1169 53.7857 96.6621L53.1629 98.0738C52.032 97.5715 50.811 97.3028 49.5734 97.2839C47.8952 97.2839 46.5854 97.7822 45.644 98.7788C44.7025 99.7754 44.2312 101.161 44.2301 102.936C44.2301 104.792 44.684 106.2 45.5919 107.159C46.4998 108.119 47.8334 108.599 49.5925 108.599C50.5301 108.597 51.4642 108.484 52.3752 108.263V104.034H49.2941V102.605Z" fill="#716153"/>
<path d="M67.8747 109.811L66.1589 105.436H60.6369L58.9419 109.811H57.3198L62.7673 96.0004H64.1135L69.5315 109.811H67.8747ZM65.6593 103.996L64.058 99.735C63.8498 99.1969 63.6359 98.5352 63.4161 97.7499C63.2582 98.4228 63.0601 99.0857 62.8228 99.735L61.2024 103.996H65.6593Z" fill="#716153"/>
<path d="M80.2231 96.0558H84.3139C86.2119 96.0558 87.583 96.3318 88.4273 96.8838C89.2716 97.4358 89.6943 98.3076 89.6955 99.4994C89.7221 100.22 89.5018 100.928 89.0709 101.507C88.625 102.059 87.9843 102.419 87.2806 102.513V102.609C88.2486 102.79 88.9599 103.149 89.4144 103.684C89.869 104.22 90.0968 104.947 90.098 105.864C90.098 107.099 89.666 108.066 88.802 108.765C87.9381 109.464 86.737 109.814 85.1987 109.815H80.2231V96.0558ZM82.4785 101.739H84.6453C85.5868 101.739 86.2749 101.59 86.7098 101.292C87.1447 100.994 87.3615 100.488 87.3604 99.7731C87.3604 99.1264 87.1262 98.6587 86.6577 98.37C86.1893 98.0813 85.4462 97.9375 84.4284 97.9387H82.475L82.4785 101.739ZM82.4785 103.565V107.916H84.8726C85.8152 107.916 86.5265 107.736 87.0064 107.376C87.4864 107.015 87.7264 106.446 87.7264 105.668C87.7264 104.953 87.4818 104.423 86.9926 104.078C86.5033 103.732 85.7585 103.559 84.7581 103.558L82.4785 103.565Z" fill="#716153"/>
<path d="M103.439 109.811L102.063 105.992H96.8049L95.4569 109.811H93.0732L98.2275 96.0004H100.677L105.826 109.811H103.439ZM101.47 104.053L100.179 100.308C100.084 100.059 99.9537 99.6622 99.7872 99.1235C99.6206 98.5848 99.5061 98.1881 99.4402 97.9387C99.2457 98.7961 98.9983 99.6408 98.6994 100.468L97.4555 104.052L101.47 104.053Z" fill="#716153"/>
<path d="M120.097 109.811H117.495L113.17 103.575L111.841 104.658V109.804H109.586V96.0558H111.841V102.623C112.457 101.871 113.069 101.147 113.678 100.45L117.401 96.0558H119.964C117.552 98.8816 115.825 100.892 114.782 102.087L120.097 109.811Z" fill="#716153"/>
<path d="M123.845 109.811V96.0558H126.1V109.811H123.845Z" fill="#716153"/>
<path d="M133.915 104.317V109.811H131.66V96.0558H135.551C137.33 96.0558 138.646 96.3884 139.5 97.0535C140.354 97.7187 140.781 98.7222 140.782 100.064C140.782 101.777 139.89 102.997 138.105 103.724L141.996 109.811H139.438L136.141 104.317H133.915ZM133.915 102.455H135.477C136.527 102.455 137.287 102.26 137.756 101.871C138.226 101.482 138.462 100.904 138.464 100.139C138.464 99.3602 138.21 98.8019 137.701 98.4635C137.191 98.1171 136.426 97.9543 135.401 97.9543H133.912L133.915 102.455Z" fill="#716153"/>
</g>
<defs>
<clipPath id="clip0_222_29">
<rect width="142" height="110" fill="white"/>
</clipPath>
</defs>
</svg>
